<?xml version="1.0" standalone="no"?>
<!DOCTYPE svg PUBLIC "-//W3C//DTD SVG 1.1//EN" "http://www.w3.org/Graphics/SVG/1.1/DTD/svg11.dtd" >
<svg xmlns="http://www.w3.org/2000/svg" xmlns:xlink="http://www.w3.org/1999/xlink" version="1.1">
<metadata>
Created by FontForge 20170731 at Fri Aug 27 17:58:36 2021
 By Aleksey,,,
Copyright (c) 1993, 1994, 2001 Adobe Systems Incorporated.  All Rights Reserved.
</metadata>
<defs>
<font id="ITCAvantGardeStd-Bk" horiz-adv-x="1136" >
  <font-face 
    font-family="ITC Avant Garde Std Bk"
    font-weight="300"
    font-stretch="normal"
    units-per-em="2048"
    panose-1="2 11 5 2 2 2 2 2 2 4"
    ascent="1638"
    descent="-410"
    x-height="1102"
    cap-height="1516"
    bbox="-268 -555 2294 1982"
    underline-thickness="102"
    underline-position="-307"
    unicode-range="U+0020-FB02"
  />
<missing-glyph horiz-adv-x="1024" 
d="M0 0v1434h1024v-1434h-1024zM512 809l348 522h-696zM573 717l349 -522v1044zM164 102h696l-348 523zM102 1239v-1044l349 522z" />
    <glyph glyph-name="fi" unicode="fi" horiz-adv-x="946" 
d="M647 981h-323v-981h-150v981h-162v121h162v90q0 70 16 126t39.5 92t60 62t68.5 39.5t75 20.5t68.5 8.5t59.5 1.5v-121q-86 -5 -126 -22q-110 -51 -111 -221v-76h475v-1102h-152v981zM799 1305h-152v211h152v-211z" />
    <glyph glyph-name="fl" unicode="fl" horiz-adv-x="946" 
d="M647 981h-323v-981h-150v981h-162v121h162v90q0 70 16 126t39.5 92t60 62t68.5 39.5t75 20.5t68.5 8.5t59.5 1.5v-121q-86 -5 -126 -22q-110 -51 -111 -221v-76h323v414h152v-1516h-152v981z" />
    <glyph glyph-name=".notdef" horiz-adv-x="1024" 
d="M0 0v1434h1024v-1434h-1024zM512 809l348 522h-696zM573 717l349 -522v1044zM164 102h696l-348 523zM102 1239v-1044l349 522z" />
    <glyph glyph-name=".null" horiz-adv-x="0" 
 />
    <glyph glyph-name="nonmarkingreturn" horiz-adv-x="682" 
 />
    <glyph glyph-name="space" unicode=" " horiz-adv-x="589" 
 />
    <glyph glyph-name="exclam" unicode="!" horiz-adv-x="581" 
d="M369 1516v-1123h-156v1123h156zM369 225v-225h-156v225h156z" />
    <glyph glyph-name="quotedbl" unicode="&#x22;" horiz-adv-x="770" 
d="M305 909h-125v607h125v-607zM590 909h-125v607h125v-607z" />
    <glyph glyph-name="numbersign" unicode="#" horiz-adv-x="1179" 
d="M788 528l-63 -446h-109l62 446h-248l-61 -446h-113l63 446h-274l10 107h279l33 237h-275l10 107h281l57 410h111l-57 -410h247l58 410h110l-57 -410h283l-11 -107h-288l-33 -237h282l-10 -107h-287zM692 635l35 237h-248l-35 -237h248z" />
    <glyph glyph-name="dollar" unicode="$" horiz-adv-x="1179" 
d="M664 1659v-178q149 -22 229.5 -120.5t85.5 -230.5h-148q-11 110 -82 169t-151 59q-92 0 -160.5 -66.5t-68.5 -169.5q0 -36 9 -66.5t21.5 -52.5t38.5 -42.5t46 -33t60 -28t64.5 -24t73.5 -23.5q332 -113 332 -387q0 -140 -96.5 -255t-253.5 -140v-199h-134v199
q-159 17 -257.5 128.5t-104.5 264.5h158q6 -87 48 -149.5t100.5 -90.5t123.5 -28q108 0 183 76.5t75 181.5q0 30 -4.5 56t-15.5 48t-22 40.5t-31 35t-35.5 29t-42.5 25t-44.5 21t-49.5 19t-49.5 16t-51.5 15.5q-42 13 -76.5 27t-78.5 43t-73.5 64.5t-50 92t-20.5 125.5
q0 149 90.5 248t228.5 123v178h134z" />
    <glyph glyph-name="percent" unicode="%" horiz-adv-x="1566" 
d="M55 1198v2q0 146 99 245t245 99q148 0 247 -99t99 -247t-99 -247t-247 -99q-146 0 -245 99t-99 247zM168 1198v-2q0 -100 65 -166.5t166 -66.5t166.5 66t65.5 169q0 102 -65.5 169t-166.5 67t-166 -67t-65 -169zM821 317v2q0 147 99.5 246t246.5 99q146 0 245 -99.5
t99 -247.5t-99 -247t-245 -99q-148 0 -247 99t-99 247zM934 317v-2q0 -100 65.5 -166.5t167.5 -66.5q101 0 166.5 66.5t65.5 168.5q0 103 -65.5 170.5t-166.5 67.5q-102 0 -167.5 -68t-65.5 -170zM1260 1516l-836 -1516h-121l834 1516h123z" />
    <glyph glyph-name="ampersand" unicode="&#x26;" horiz-adv-x="1501" 
d="M1210 934h162l-268 -510l340 -346l-107 -103l-313 322q-41 -81 -81 -136.5t-94 -101t-124.5 -67t-159.5 -21.5q-135 0 -241 62t-160.5 159t-54.5 209q0 285 364 455q-63 68 -96 108.5t-61.5 103.5t-30.5 130q0 141 101.5 242.5t250.5 101.5q150 0 253 -101.5t103 -242.5
q0 -43 -10 -81t-24 -66.5t-40.5 -57t-48 -46.5t-58 -40t-58.5 -33.5t-62 -31.5l309 -316zM639 1411h-2q-90 0 -146.5 -62t-56.5 -141q0 -25 5 -48t16.5 -46t21 -39.5t30 -40t30 -34t34 -35l31.5 -31.5q56 27 89.5 45.5t67.5 43.5t51.5 49t28.5 56t11 72q0 86 -59 148.5
t-152 62.5zM920 397l-351 363q-161 -75 -228 -161t-69 -187q2 -120 86.5 -206.5t214.5 -86.5q124 0 200.5 67t146.5 211z" />
    <glyph glyph-name="quotesingle" unicode="'" horiz-adv-x="468" 
d="M297 909h-125v607h125v-607z" />
    <glyph glyph-name="parenleft" unicode="(" horiz-adv-x="903" 
d="M829 1542v-172q-96 -55 -181 -141.5t-152 -197t-106.5 -250t-39.5 -285.5q0 -144 38.5 -282.5t105 -249.5t152.5 -199t183 -144v-176q-206 106 -353.5 274.5t-219.5 366.5t-72 412q0 210 74 411.5t222.5 370t348.5 262.5z" />
    <glyph glyph-name="parenright" unicode=")" horiz-adv-x="903" 
d="M74 -555v172q96 55 180.5 142t151.5 198t106 250.5t39 286.5q0 144 -38.5 282t-105 249t-151.5 199t-182 144v174q206 -106 353 -273.5t218.5 -365t71.5 -411.5q0 -210 -73.5 -412t-221.5 -371.5t-348 -263.5z" />
    <glyph glyph-name="asterisk" unicode="*" horiz-adv-x="1239" 
d="M676 1516l-21 -273l226 156l53 -99l-242 -114l244 -119l-55 -98l-228 155l23 -272h-113l23 274l-224 -157l-59 100l246 117l-246 112l57 101l226 -156l-23 273h113z" />
    <glyph glyph-name="plus" unicode="+" horiz-adv-x="1228" 
d="M688 1030v-442h440v-148h-440v-440h-147v440h-441v148h441v442h147z" />
    <glyph glyph-name="comma" unicode="," horiz-adv-x="591" 
d="M379 227l-154 -381h-137l129 381h162z" />
    <glyph glyph-name="hyphen" unicode="-" horiz-adv-x="555" 
d="M0 649h555v-149h-555v149z" />
    <glyph glyph-name="period" unicode="." horiz-adv-x="591" 
d="M377 225v-225h-160v225h160z" />
    <glyph glyph-name="slash" unicode="/" horiz-adv-x="1112" 
d="M141 -205l660 1721h170l-660 -1721h-170z" />
    <glyph glyph-name="zero" unicode="0" horiz-adv-x="1179" 
d="M76 485v533q0 124 40 221.5t97.5 152.5t131.5 91t133 47.5t110 11.5q74 0 147 -20t139.5 -62t117 -101t80.5 -144t30 -185v-545q0 -96 -25.5 -176t-69 -134.5t-96 -95t-111.5 -63t-110 -33t-96 -10.5q-62 0 -128 15.5t-137 53.5t-126.5 94t-91 147t-35.5 202zM246 1026
v-545q0 -158 98 -258t246 -100q61 0 121 23.5t110 66.5t81.5 113t31.5 155v553q0 60 -19 120t-57.5 115t-109 89.5t-162.5 34.5q-150 0 -245 -101.5t-95 -265.5z" />
    <glyph glyph-name="one" unicode="1" horiz-adv-x="1179" 
d="M528 0v1370h-305v146h475v-1516h-170z" />
    <glyph glyph-name="two" unicode="2" horiz-adv-x="1179" 
d="M113 0v137q98 94 277.5 270.5t221.5 217.5q123 116 161 159q128 144 134 285q0 147 -88 235.5t-223 88.5q-134 0 -219.5 -99t-89.5 -270h-162q6 232 131 365q47 57 113.5 93t124.5 48t118 12q208 0 337 -133.5t126 -331.5q-4 -118 -58 -214t-173 -220
q-332 -332 -500 -498h735v-145h-966z" />
    <glyph glyph-name="three" unicode="3" horiz-adv-x="1179" 
d="M334 1157h-166q4 98 43 175t99.5 121t129 66.5t138.5 22.5q166 0 279.5 -104t113.5 -269q0 -109 -57 -189.5t-152 -129.5q76 -26 134 -69t89.5 -86.5t51 -94t25 -86.5t5.5 -70q0 -206 -141.5 -338.5t-356.5 -132.5q-116 0 -224 48.5t-175 136.5q-91 121 -94 286h170
q6 -146 102 -233.5t227 -87.5q146 0 234 94t88 232q0 129 -97.5 226t-258.5 97h-101v131h76q77 0 135.5 25.5t90 65.5t46.5 80t15 77q0 104 -63.5 173t-164.5 69q-111 0 -172.5 -69.5t-68.5 -166.5z" />
    <glyph glyph-name="four" unicode="4" horiz-adv-x="1179" 
d="M766 0v285h-750v129l740 1102h174v-1094h160v-137h-160v-285h-164zM193 422h581v889z" />
    <glyph glyph-name="five" unicode="5" horiz-adv-x="1179" 
d="M272 1516h732v-146h-601l-86 -450q38 27 65.5 42.5t89.5 33.5t132 18q91 0 172 -29t141 -79t103.5 -115.5t65.5 -139.5t22 -149q0 -137 -67 -258.5t-190.5 -197t-275.5 -75.5q-91 0 -178.5 30.5t-161 87t-124.5 146t-64 197.5h170q22 -141 126.5 -225t229.5 -84
q147 0 256 110t109 263q0 156 -108 266t-259 110q-180 0 -297 -161l-139 34z" />
    <glyph glyph-name="six" unicode="6" horiz-adv-x="1179" 
d="M623 1516h192l-303 -441q-13 -20 -39 -57.5t-33 -48.5q31 21 83.5 37t109.5 16q94 0 181.5 -36t155.5 -100.5t109 -162.5t41 -213q0 -147 -68.5 -270t-190 -195t-269.5 -72q-132 0 -237 48t-173 133q-62 71 -92.5 163t-30.5 181q0 115 36 206t98 183zM227 489v-2
q0 -154 100.5 -259t258.5 -105t261 108.5t103 264.5q0 116 -53 203.5t-132.5 130t-170.5 42.5q-63 0 -125.5 -23t-117.5 -68t-89.5 -121t-34.5 -171z" />
    <glyph glyph-name="seven" unicode="7" horiz-adv-x="1179" 
d="M164 1516h864v-136l-629 -1380h-182l635 1370h-688v146z" />
    <glyph glyph-name="eight" unicode="8" horiz-adv-x="1179" 
d="M174 1165v2q0 97 50.5 182t147 139t218.5 54q91 0 169.5 -30.5t131.5 -82.5t83 -120.5t30 -143.5q0 -107 -57.5 -191t-139.5 -124q125 -45 198 -154.5t76 -249.5q-3 -201 -143.5 -337t-347.5 -136q-209 0 -349 135.5t-143 337.5q2 138 74.5 247.5t198.5 156.5
q-82 40 -139.5 124t-57.5 191zM340 1153v-2q0 -103 73 -174.5t177 -71.5q103 0 175.5 72t72.5 176q0 105 -72.5 177.5t-175.5 72.5q-105 0 -177.5 -72.5t-72.5 -177.5zM266 446v-2q0 -132 93.5 -226.5t230.5 -94.5q135 0 228 95t93 228q0 134 -92.5 230t-228.5 96
q-138 0 -231 -96t-93 -230z" />
    <glyph glyph-name="nine" unicode="9" horiz-adv-x="1179" 
d="M557 0h-192l303 440q60 89 73 107q-83 -53 -192 -53q-94 0 -182 36t-156.5 100.5t-110 162.5t-41.5 213q0 147 69.5 270t191.5 194.5t270 71.5q131 0 236.5 -47.5t172.5 -132.5q61 -71 92 -163.5t31 -180.5q0 -115 -35.5 -205t-97.5 -184zM954 1026v2q0 154 -101 259.5
t-259 105.5q-156 0 -260.5 -108.5t-104.5 -264.5q0 -115 53.5 -203t134 -131t169.5 -43q63 0 125.5 23t118 68t90 121t34.5 171z" />
    <glyph glyph-name="colon" unicode=":" horiz-adv-x="591" 
d="M377 1102v-225h-160v225h160zM377 225v-225h-160v225h160z" />
    <glyph glyph-name="semicolon" unicode=";" horiz-adv-x="591" 
d="M375 1102v-225h-158v225h158zM379 227l-160 -381h-131l129 381h162z" />
    <glyph glyph-name="less" unicode="&#x3c;" horiz-adv-x="1228" 
d="M100 590l1028 467v-162l-870 -381l870 -379v-162l-1028 467v150z" />
    <glyph glyph-name="equal" unicode="=" horiz-adv-x="1228" 
d="M100 809h1028v-145h-1028v145zM100 365h1028v-146h-1028v146z" />
    <glyph glyph-name="greater" unicode="&#x3e;" horiz-adv-x="1228" 
d="M100 135l871 381l-871 379v162l1028 -467v-150l-1028 -467v162z" />
    <glyph glyph-name="question" unicode="?" 
d="M618 387h-159q3 116 42.5 209t153.5 201l30 30t30 30.5t25 27t25 29t20.5 27t19.5 29.5t14 28t13 32.5t6 32.5t4 37q0 120 -80 202t-207 82q-109 0 -193.5 -66t-103.5 -188q-4 -18 -4 -55h-166q0 33 2 49q10 104 56 186.5t113.5 131.5t144.5 74.5t157 25.5
q191 0 322 -125.5t131 -304.5q0 -50 -15.5 -99t-34.5 -84t-58 -80t-62 -67.5t-70 -66.5q-53 -51 -86.5 -98t-47.5 -91t-17.5 -71t-4.5 -68zM616 225v-225h-157v225h157z" />
    <glyph glyph-name="at" unicode="@" horiz-adv-x="1597" 
d="M1399 332l49 -62q-54 -79 -134.5 -140t-166 -94t-163.5 -49t-146 -16q-142 0 -268 43t-219 117.5t-161 173t-102.5 212t-34.5 231.5q0 159 59.5 304.5t163 254t252.5 173t318 64.5q110 0 214 -28.5t193.5 -84.5t157.5 -133t106.5 -181t38.5 -222q0 -106 -31 -200
t-80.5 -159.5t-110 -113.5t-120.5 -71t-112 -23q-26 0 -52 6.5t-54 21.5t-47 47t-23 76q-99 -145 -256 -145q-42 0 -84 16.5t-81.5 50t-64 94t-24.5 138.5q0 129 57 253t156 203.5t211 79.5q88 0 138 -40t77 -113l37 123h110l-158 -521q0 -1 -10.5 -41t-11.5 -61
q-1 -36 16 -57t35.5 -26t42.5 -5q48 0 105 32t110 88.5t88 148t35 196.5t-34 195.5t-92.5 155t-135.5 111t-163.5 69t-176.5 22.5q-189 0 -347.5 -91t-250.5 -252t-92 -358q0 -131 47.5 -252.5t133 -215.5t214.5 -150.5t281 -56.5q101 0 202 26t198.5 87t160.5 149zM528 635
v-2q0 -56 15.5 -97t40.5 -62t51.5 -30.5t54.5 -9.5q56 0 103 23t77 60.5t48 72t30 72.5q0 1 17 45t25 67t17 59.5t9 59.5q-1 83 -52 129.5t-114 46.5q-76 0 -150 -58.5t-123 -160t-49 -215.5z" />
    <glyph glyph-name="A" unicode="A" horiz-adv-x="1456" 
d="M373 426l-174 -426h-183l633 1516h164l627 -1516h-185l-176 426h-706zM1028 565l-303 760l-301 -760h604z" />
    <glyph glyph-name="B" unicode="B" horiz-adv-x="1177" 
d="M152 0v1516h399q195 0 299 -72q86 -49 125 -133t39 -183q0 -216 -203 -321q56 -17 101.5 -44t75 -56.5t52 -64.5t34 -65t18.5 -63t8.5 -53t1.5 -39q-1 -122 -55 -212t-152 -142q-65 -40 -137 -54t-189 -14h-417zM319 1366v-506h230q115 0 178 31q123 68 123 225
q0 78 -35.5 134.5t-87.5 80.5q-63 32 -188 35h-220zM319 717v-567h275q117 0 184 28q157 68 160 252q0 90 -44 156.5t-118 99.5q-47 20 -90.5 25.5t-122.5 5.5h-244z" />
    <glyph glyph-name="C" unicode="C" horiz-adv-x="1640" 
d="M1386 408h183q-77 -184 -267 -309.5t-430 -125.5q-221 0 -402.5 104.5t-284.5 284.5t-103 396q0 160 59.5 304.5t163 250t251 167.5t314.5 62q108 0 208 -27.5t175 -72t139.5 -103.5t106.5 -118.5t70 -120.5h-183q-18 31 -45 65.5t-74.5 76.5t-102.5 74.5t-133 54.5
t-161 22q-174 0 -316.5 -84.5t-223 -229.5t-80.5 -319q0 -177 81 -323t223.5 -230t315.5 -84q90 0 172 25t136 58t102 78t68.5 71.5t37.5 52.5z" />
    <glyph glyph-name="D" unicode="D" horiz-adv-x="1464" 
d="M152 0v1516h452q403 0 596 -228q182 -200 182 -528q0 -351 -198 -555.5t-572 -204.5h-460zM319 1366v-1216h302q286 0 438.5 162t152.5 442q0 279 -147 442q-160 170 -444 170h-302z" />
    <glyph glyph-name="E" unicode="E" horiz-adv-x="1107" 
d="M152 0v1516h839v-150h-672v-526h668v-150h-668v-540h672v-150h-839z" />
    <glyph glyph-name="F" unicode="F" horiz-adv-x="997" 
d="M152 0v1516h770v-150h-603v-532h599v-152h-599v-682h-167z" />
    <glyph glyph-name="G" unicode="G" horiz-adv-x="1746" 
d="M1585 1122h-192q-71 99 -170 164q-154 107 -353 107q-166 0 -307 -78t-227 -224.5t-86 -330.5q0 -141 50.5 -262t136 -202.5t198.5 -128t237 -46.5q232 0 406 137q166 132 205 317h-754v140h950q-4 -161 -67 -293q-64 -139 -181.5 -242.5t-261.5 -156t-297 -52.5
q-163 0 -309.5 60.5t-252.5 165t-168 251.5t-62 312q0 223 107 403t288.5 279.5t398.5 99.5q229 0 425 -116.5t286 -303.5z" />
    <glyph glyph-name="H" unicode="H" horiz-adv-x="1372" 
d="M319 0h-167v1516h167v-674h732v674h170v-1516h-170v692h-732v-692z" />
    <glyph glyph-name="I" unicode="I" horiz-adv-x="473" 
d="M152 0v1516h167v-1516h-167z" />
    <glyph glyph-name="J" unicode="J" horiz-adv-x="1011" 
d="M862 1516v-1027q0 -190 -41 -286q-46 -94 -125 -150q-116 -80 -262 -80q-38 0 -81.5 8t-95.5 29.5t-96.5 55t-82 90t-53.5 127.5q-11 40 -13 71h183q0 -6 4 -30q16 -57 46.5 -99t66.5 -63t68 -30t62 -9q88 1 145.5 42t78.5 99q26 67 26 193v1059h170z" />
    <glyph glyph-name="K" unicode="K" horiz-adv-x="1214" 
d="M184 0v1516h168v-734l617 734h184l-635 -756l699 -760h-211l-654 719v-719h-168z" />
    <glyph glyph-name="L" unicode="L" horiz-adv-x="909" 
d="M154 0v1516h170v-1366h577v-150h-747z" />
    <glyph glyph-name="M" unicode="M" horiz-adv-x="1898" 
d="M309 0h-157v1516h237l561 -1272l559 1272h238v-1516h-160l4 1348l-587 -1348h-109l-590 1348z" />
    <glyph glyph-name="N" unicode="N" horiz-adv-x="1525" 
d="M324 1516l888 -1266l-2 1266h164v-1516h-164l-899 1276l4 -1276h-163v1516h172z" />
    <glyph glyph-name="O" unicode="O" horiz-adv-x="1742" 
d="M80 752v2q0 171 63.5 319.5t171 250.5t252 160t303.5 58q164 0 310.5 -60.5t252 -164.5t167 -249.5t61.5 -309.5t-61.5 -309.5t-166.5 -250t-251.5 -165t-311.5 -60.5t-312 61.5t-251.5 166t-165.5 248t-61 303.5zM250 760v-2q0 -176 81 -321.5t224 -229.5t317 -84
q175 0 318.5 86.5t223 231.5t79.5 317q0 128 -47 245t-129 202.5t-198.5 136.5t-248.5 51q-174 0 -317 -85t-223 -230t-80 -318z" />
    <glyph glyph-name="P" unicode="P" horiz-adv-x="1130" 
d="M137 1516h400q159 0 247.5 -21.5t159.5 -75.5q75 -58 118.5 -156t43.5 -204q0 -107 -43.5 -207t-112.5 -154q-74 -58 -162 -80t-237 -22h-244v-596h-170v1516zM307 1366v-621h242q98 0 161 14t119 50q50 33 81.5 100t31.5 146q0 81 -31.5 148t-83.5 100q-56 36 -119 49.5
t-163 13.5h-238z" />
    <glyph glyph-name="Q" unicode="Q" horiz-adv-x="1796" 
d="M1792 117v-144q-68 6 -123 15q-76 9 -139.5 31t-96 41t-83.5 53q-215 -142 -455 -142q-177 0 -328 65.5t-252 174.5t-158 251t-57 294q0 215 102.5 395t284.5 285.5t404 105.5q167 0 314.5 -61.5t252 -166t165 -248.5t60.5 -304q0 -87 -17 -167.5t-38 -132.5
t-56.5 -107.5t-54 -78t-49.5 -57.5q70 -45 141.5 -67.5t182.5 -34.5zM891 1393h-2q-162 0 -297.5 -74t-219 -208t-93.5 -302q-2 -108 22 -191q170 56 309 56q227 0 408 -109q55 -32 103 -68.5t212 -170.5q90 82 136.5 194.5t46.5 241.5q0 180 -84.5 325.5t-227 225.5
t-313.5 80zM895 121h2q98 0 187.5 30.5t142.5 69.5q-24 22 -114.5 95t-94.5 77q-198 135 -426 135q-56 0 -108 -8.5t-81 -17.5t-71 -25q41 -86 100.5 -152t119 -103.5t127 -61.5t118 -31.5t98.5 -7.5z" />
    <glyph glyph-name="R" unicode="R" horiz-adv-x="1202" 
d="M137 0v1516h395q170 0 266.5 -19.5t159.5 -58.5q93 -56 150 -168t57 -240q3 -170 -90 -297q-63 -85 -141.5 -119.5t-196.5 -46.5l377 -567h-184l-428 662h49q74 0 120 2.5t112 21t104 53.5q114 111 114 279q0 87 -40 167.5t-109 125.5q-53 34 -122 44.5t-185 10.5h-238
v-1366h-170z" />
    <glyph glyph-name="S" unicode="S" horiz-adv-x="1097" 
d="M78 422h170q7 -72 32.5 -128t58 -88.5t73 -53.5t74 -28t65.5 -7q122 0 212.5 83t90.5 206q0 58 -21 105t-44.5 74.5t-79.5 56t-84.5 39t-101.5 33.5l-27 9q-39 12 -61 19t-68.5 26.5t-75.5 38t-67.5 51t-60.5 68.5t-38 87.5t-16 110.5q-2 129 63 226t167 144.5t220 47.5
q59 0 115 -13t110.5 -42.5t96.5 -73.5t71.5 -111.5t36.5 -150.5h-168q-6 35 -15 64t-29.5 65t-47.5 60.5t-72.5 41.5t-103.5 17q-117 0 -197 -72t-80 -188q0 -38 8.5 -69.5t23 -55.5t41 -46t52 -37.5t67.5 -32.5t77.5 -30t89.5 -31l18 -6q133 -51 193 -89q175 -115 176 -324
q0 -92 -34 -174t-94 -142t-148.5 -94.5t-192.5 -34.5q-129 0 -233.5 51t-170.5 154.5t-71 243.5z" />
    <glyph glyph-name="T" unicode="T" horiz-adv-x="946" 
d="M387 0v1366h-373v150h918v-150h-375v-1366h-170z" />
    <glyph glyph-name="U" unicode="U" horiz-adv-x="1302" 
d="M147 1516h170v-961q0 -74 2.5 -111t19 -91.5t50.5 -102.5q40 -58 111 -92.5t153 -34.5q81 0 151.5 34t108.5 91q34 47 50.5 101t19 92t2.5 114v961h168v-961q1 -74 -5 -132.5t-23 -121.5t-53 -117t-91 -96q-134 -115 -328 -115q-88 0 -178 28t-156 87q-46 37 -79 83
t-51 88.5t-27.5 97.5t-12 97t-2.5 101v961z" />
    <glyph glyph-name="V" unicode="V" horiz-adv-x="1402" 
d="M618 0l-598 1516h179l501 -1297l504 1297h178l-602 -1516h-162z" />
    <glyph glyph-name="W" unicode="W" horiz-adv-x="1882" 
d="M446 0l-419 1516h174l344 -1285l332 1285h127l337 -1285l340 1285h172l-423 -1516h-166l-324 1231l-324 -1231h-170z" />
    <glyph glyph-name="X" unicode="X" horiz-adv-x="1275" 
d="M18 0l521 782l-488 734h195l391 -605l391 605h193l-486 -736l522 -780h-194l-432 657l-424 -657h-189z" />
    <glyph glyph-name="Y" unicode="Y" horiz-adv-x="1198" 
d="M514 0v532l-487 984h184l389 -820l387 820h184l-487 -984v-532h-170z" />
    <glyph glyph-name="Z" unicode="Z" horiz-adv-x="1021" 
d="M975 1386l-731 -1236h760v-150h-965v109l743 1257h-764v150h957v-130z" />
    <glyph glyph-name="bracketleft" unicode="[" horiz-adv-x="903" 
d="M758 -264v-133h-504v1913h504v-132h-355v-1648h355z" />
    <glyph glyph-name="backslash" unicode="\" horiz-adv-x="1112" 
d="M801 -205l-660 1721h170l660 -1721h-170z" />
    <glyph glyph-name="bracketright" unicode="]" horiz-adv-x="903" 
d="M145 -397v133h353v1648h-353v132h502v-1913h-502z" />
    <glyph glyph-name="asciicircum" unicode="^" horiz-adv-x="1228" 
d="M182 768l355 748h155l355 -748h-166l-267 606l-266 -606h-166z" />
    <glyph glyph-name="underscore" unicode="_" horiz-adv-x="1024" 
d="M1024 -256h-1024v102h1024v-102z" />
    <glyph glyph-name="grave" unicode="`" 
d="M326 1597l489 -276l-49 -96l-494 262z" />
    <glyph glyph-name="a" unicode="a" horiz-adv-x="1400" 
d="M1253 1102v-1102h-151v227q-64 -123 -183 -190.5t-268 -67.5q-105 0 -196.5 31.5t-159.5 86.5t-117 128t-73.5 159t-24.5 177q0 161 72 293.5t203.5 210.5t295.5 78q165 0 286 -79t165 -184v232h151zM229 551v-2q1 -78 28.5 -153t79.5 -140t139 -105t196 -40
q142 0 246.5 73.5t150.5 194.5q37 78 37 174q3 95 -35 176q-47 118 -154 191t-249 73q-189 0 -314 -128t-125 -314z" />
    <glyph glyph-name="b" unicode="b" horiz-adv-x="1392" 
d="M147 0v1516h152v-414v-221q69 117 188 184t261 68q156 0 285 -72.5t205.5 -206t76.5 -301.5q0 -164 -72.5 -297.5t-204 -210t-295.5 -76.5q-153 0 -270 68.5t-180 189.5v-227h-146zM1163 551v2q0 188 -125.5 314t-310.5 126q-188 0 -312 -127.5t-124 -312.5
q0 -184 121 -313t309 -129q106 0 192 38.5t139.5 102t82 140.5t28.5 159z" />
    <glyph glyph-name="c" unicode="c" horiz-adv-x="1290" 
d="M1063 373h158q-55 -178 -205.5 -291t-345.5 -113q-135 0 -249 49.5t-187.5 131t-114.5 186t-41 215.5q0 161 75 294.5t208.5 210.5t297.5 77q125 0 238 -47t200 -142t124 -223h-156q-50 132 -161.5 202t-237.5 70q-96 0 -169 -30t-143 -95q-57 -55 -91 -139.5t-34 -177.5
q0 -127 59 -228.5t158 -156.5t218 -55q149 1 255 77.5t144 184.5z" />
    <glyph glyph-name="d" unicode="d" horiz-adv-x="1400" 
d="M1249 1516v-1516h-145v227q-63 -117 -177.5 -187.5t-277.5 -70.5q-128 0 -236.5 48t-180.5 128.5t-112 186t-40 221.5q0 162 72.5 294.5t202.5 209t292 76.5q167 0 288 -77.5t163 -176.5v233v404h151zM229 553v-2q1 -84 30.5 -162t83.5 -140.5t139.5 -100t189.5 -37.5
q91 0 172.5 34t140.5 95q129 132 123 317q0 185 -127 309q-124 127 -311 127q-190 0 -315.5 -126.5t-125.5 -313.5z" />
    <glyph glyph-name="e" unicode="e" horiz-adv-x="1286" 
d="M1219 508h-1004q3 -99 44 -179.5t104.5 -129.5t136.5 -74.5t145 -24.5q127 0 226 60t153 168h158q-75 -176 -224 -269q-140 -90 -313 -90q-111 0 -207 34t-163.5 91.5t-116 132t-72 157t-23.5 165.5q0 160 75.5 294t209 212t295.5 78q117 0 221.5 -40.5t182.5 -115.5
q95 -92 139.5 -214t32.5 -255zM217 629h852q-8 149 -133 264t-291 111q-175 0 -296 -110.5t-132 -264.5z" />
    <glyph glyph-name="f" unicode="f" horiz-adv-x="573" 
d="M174 0v981h-162v121h162v90q0 70 16 126t39.5 92t60 62t68.5 39.5t75 20.5t68.5 8.5t59.5 1.5v-121q-86 -5 -126 -22q-110 -51 -111 -221v-76h237v-121h-237v-981h-150z" />
    <glyph glyph-name="g" unicode="g" horiz-adv-x="1394" 
d="M1249 1102v-975q0 -277 -164 -434q-82 -79 -193 -124.5t-224 -45.5q-199 0 -344.5 100.5t-200.5 255.5h174q53 -92 131 -145q112 -80 244 -80q80 0 156 30.5t136 85t97 139t37 183.5v141q-61 -121 -175.5 -192.5t-269.5 -71.5q-168 0 -300.5 79t-203.5 211t-71 290
q0 164 73 297t205 210t297 77q155 0 276.5 -75.5t170.5 -183.5v228h149zM229 553v-2q0 -85 29.5 -163t84.5 -140.5t140.5 -99.5t188.5 -37q185 0 309 127q120 126 123 311q0 163 -100 289q-118 153 -336 153q-184 0 -311.5 -123.5t-127.5 -314.5z" />
    <glyph glyph-name="h" unicode="h" horiz-adv-x="1304" 
d="M147 0v1516h152v-404v-190q49 104 159 159t234 52q245 0 365 -152q104 -131 104 -387v-594h-149v588q0 186 -80 291q-92 112 -277 112q-175 0 -268 -108q-88 -98 -88 -256v-627h-152z" />
    <glyph glyph-name="i" unicode="i" horiz-adv-x="446" 
d="M147 1305v211h152v-211h-152zM147 0v1102h152v-1102h-152z" />
    <glyph glyph-name="j" unicode="j" horiz-adv-x="518" 
d="M188 1305v211h152v-211h-152zM340 1102v-1086q0 -50 -1.5 -85.5t-8.5 -82.5t-19 -80t-35 -69t-55 -59.5t-79.5 -42t-108.5 -25.5q-31 0 -47 -2v127q20 0 28 2q47 8 79.5 28t51 45.5t28.5 67t12.5 79t2.5 93.5v1090h152z" />
    <glyph glyph-name="k" unicode="k" horiz-adv-x="1040" 
d="M152 0v1516h151v-867l496 453h186l-530 -484l555 -618h-179l-528 586v-586h-151z" />
    <glyph glyph-name="l" unicode="l" horiz-adv-x="444" 
d="M147 0v1516h152v-1516h-152z" />
    <glyph glyph-name="m" unicode="m" horiz-adv-x="1957" 
d="M147 0v1102h144v-174q50 98 148.5 151.5t199.5 53.5q190 0 301 -125q29 -29 72 -115q37 72 80 117q117 123 303 123q189 0 297 -111q70 -70 97.5 -164.5t27.5 -245.5v-612h-152v606q0 199 -82 293q-73 92 -219 92q-75 0 -140 -29.5t-102 -84.5q-40 -56 -52.5 -111.5
t-12.5 -153.5v-612h-152v612q3 90 -10.5 150t-46.5 112q-81 114 -242 117q-74 3 -136 -28.5t-97 -83.5q-74 -99 -74 -265v-614h-152z" />
    <glyph glyph-name="n" unicode="n" horiz-adv-x="1306" 
d="M147 0v1102h144q0 -123 -2 -197q48 109 155.5 170t253.5 58q100 -1 179.5 -28.5t131.5 -74t87 -111t50 -137t15 -155.5v-627h-149v596q0 187 -88 292.5t-267 102.5q-170 -1 -264 -98.5t-94 -269.5v-623h-152z" />
    <glyph glyph-name="o" unicode="o" horiz-adv-x="1329" 
d="M80 551v2q0 154 71 285.5t206 213t307 81.5q130 0 241 -47.5t185.5 -127.5t116.5 -185.5t42 -221.5t-42 -221t-116.5 -185t-185.5 -127t-241 -47q-172 0 -307 81t-206 212.5t-71 286.5zM229 551v-2q0 -187 125.5 -312.5t309.5 -125.5q185 0 309.5 125.5t124.5 314.5
t-124.5 314.5t-309.5 125.5q-184 0 -309.5 -126t-125.5 -314z" />
    <glyph glyph-name="p" unicode="p" horiz-adv-x="1400" 
d="M147 -418v1520h144v-230q69 123 187.5 192t273.5 69q108 0 201 -33.5t158.5 -90.5t113 -132.5t70 -159t22.5 -170.5q0 -115 -41 -220t-113 -184.5t-179 -126.5t-232 -47q-87 0 -165.5 23.5t-134 62t-94.5 82t-59 88.5v-225v-418h-152zM1165 551v2q0 80 -28 156.5
t-81 140.5t-139.5 103.5t-193.5 39.5q-182 0 -311 -129q-123 -129 -123 -315t127 -313q125 -125 311 -125q187 0 312.5 125.5t125.5 314.5z" />
    <glyph glyph-name="q" unicode="q" horiz-adv-x="1396" 
d="M1249 1102v-1520h-151v418v223q-45 -99 -165 -176.5t-290 -77.5q-124 0 -230.5 46.5t-179 125.5t-113 184t-40.5 220q0 163 70.5 296.5t202 212.5t298.5 79q159 0 275 -70.5t178 -181.5v221h145zM229 549v-2q0 -183 126 -309.5t315 -126.5q184 0 311 127q125 125 125 311
q6 184 -123 313q-59 62 -140 96.5t-171 34.5q-106 0 -192.5 -39t-139.5 -103.5t-81.5 -142t-29.5 -159.5z" />
    <glyph glyph-name="r" unicode="r" horiz-adv-x="659" 
d="M147 0v1102h144v-180q99 203 352 211v-150h-14q-160 0 -246 -98t-86 -285v-600h-150z" />
    <glyph glyph-name="s" unicode="s" horiz-adv-x="921" 
d="M793 825h-150q0 86 -51.5 134.5t-136.5 48.5q-88 0 -141 -52.5t-50 -126.5q3 -73 55 -113.5t162 -72.5q38 -10 54 -14.5t51.5 -16t52.5 -20t46.5 -24.5t44.5 -31t35 -38.5t30.5 -48.5t18.5 -59t9 -72q6 -151 -99.5 -250.5t-264.5 -99.5q-69 0 -134.5 22t-120 63
t-88 108.5t-34.5 150.5h149q4 -107 71.5 -163t158.5 -56q94 0 154.5 60.5t58.5 146.5q-3 90 -65 139t-212 92q-66 20 -111.5 41t-87 53.5t-63 80t-22.5 110.5q0 144 99.5 230t244.5 86q61 0 117 -17.5t104.5 -52.5t79.5 -96.5t35 -141.5z" />
    <glyph glyph-name="t" unicode="t" horiz-adv-x="643" 
d="M233 0v981h-217v121h217v414h150v-414h242v-121h-242v-981h-150z" />
    <glyph glyph-name="u" unicode="u" horiz-adv-x="1308" 
d="M1161 1102v-1102h-143v197q-46 -108 -153.5 -168.5t-254.5 -59.5q-125 2 -217 43.5t-145 113t-78 159t-25 192.5v625h150v-596q0 -186 87 -291t267 -104q171 1 266 98.5t95 269.5v623h151z" />
    <glyph glyph-name="v" unicode="v" horiz-adv-x="1060" 
d="M1042 1102l-434 -1102h-157l-435 1102h160l354 -916l353 916h159z" />
    <glyph glyph-name="w" unicode="w" horiz-adv-x="1613" 
d="M401 0l-383 1102h160l303 -907l264 809h125l267 -809l301 907h157l-381 -1102h-149l-260 803l-256 -803h-148z" />
    <glyph glyph-name="x" unicode="x" horiz-adv-x="985" 
d="M14 0l385 565l-368 537h184l277 -424l278 424h180l-366 -537l387 -565h-185l-294 444l-293 -444h-185z" />
    <glyph glyph-name="y" unicode="y" horiz-adv-x="1048" 
d="M254 -418l188 438l-426 1082h162l346 -891l357 891h166l-629 -1520h-164z" />
    <glyph glyph-name="z" unicode="z" horiz-adv-x="858" 
d="M27 0v111l610 870h-586v121h756v-123l-598 -858h620v-121h-802z" />
    <glyph glyph-name="braceleft" unicode="{" horiz-adv-x="958" 
d="M799 1534v-121h-111q-79 0 -102 -43t-23 -160v-395q0 -107 -58 -201.5t-126 -132.5q75 -25 129.5 -110t54.5 -203v-393q0 -122 23.5 -163.5t101.5 -41.5h111v-121h-176q-217 0 -217 266v394q0 222 -177 297v155q68 13 122.5 96.5t54.5 210.5v404q0 262 217 262h176z" />
    <glyph glyph-name="bar" unicode="|" 
d="M485 1536h166v-2048h-166v2048z" />
    <glyph glyph-name="braceright" unicode="}" horiz-adv-x="958" 
d="M160 1413v121h176q217 0 217 -262v-404q0 -128 54 -211t122 -96v-155q-176 -75 -176 -297v-394q0 -266 -217 -266h-176v121h110q78 0 101.5 41.5t23.5 163.5v393q0 113 60.5 199.5t124.5 115.5q-80 36 -132.5 127.5t-52.5 204.5v395q0 116 -23.5 159.5t-101.5 43.5h-110z
" />
    <glyph glyph-name="asciitilde" unicode="~" horiz-adv-x="1228" 
d="M1028 653l49 -133q-93 -158 -221 -158q-36 0 -78.5 12t-69 23.5t-77.5 36.5q-152 74 -232 74q-119 6 -198 -131l-51 131q40 75 105.5 119t147.5 41q11 0 23.5 -1.5t23 -3t24.5 -5t23 -6t24.5 -8.5t22.5 -8.5t24.5 -10t23 -10t24.5 -11t23 -10.5q12 -5 45.5 -20.5
t48.5 -21.5t40 -15.5t44 -13t37 -3.5q29 0 54 11t47.5 33t37.5 40.5t35 48.5z" />
    <glyph glyph-name="uni00A0" unicode="&#xa0;" horiz-adv-x="589" 
 />
    <glyph glyph-name="exclamdown" unicode="&#xa1;" horiz-adv-x="581" 
d="M213 877v227h156v-227h-156zM213 -412v1123h156v-1123h-156z" />
    <glyph glyph-name="cent" unicode="&#xa2;" horiz-adv-x="1179" 
d="M678 74h-135v219q-105 17 -187 67t-128.5 118t-69.5 139t-23 141q0 73 23.5 145.5t70 140.5t128 118t186.5 67v201h131v-201q126 -24 222.5 -99.5t147.5 -201.5h-161q-85 155 -273 155q-142 0 -231.5 -93t-89.5 -226t86 -229.5t235 -96.5q55 0 102.5 14.5t79.5 38.5
t53 46.5t34 46.5h168q-29 -67 -74.5 -121t-97 -88t-100.5 -54t-97 -28v-219z" />
    <glyph glyph-name="sterling" unicode="&#xa3;" horiz-adv-x="1179" 
d="M834 821v-127h-388q166 -140 166 -313q0 -118 -88 -244h154q95 0 146.5 16t95.5 52q92 95 92 215q0 38 -15 92h154q14 -72 14 -111q0 -83 -33 -156.5t-79 -123.5q-69 -66 -146.5 -93.5t-216.5 -27.5h-610v137h235q29 15 54.5 38t50 75.5t24.5 120.5q0 95 -47.5 171
t-138.5 152h-240v127h150q-73 100 -76 232q0 130 62.5 242t180 180.5t265.5 68.5q184 0 323.5 -112.5t172.5 -307.5h-162q-30 116 -117.5 193.5t-214.5 77.5q-149 -3 -242 -99t-98 -245q3 -131 92 -230h480z" />
    <glyph glyph-name="currency" unicode="&#xa4;" horiz-adv-x="1179" 
d="M1038 170l-159 160q-135 -101 -289 -101q-157 0 -289 101l-162 -160l-84 84l164 162q-102 127 -102 284q0 166 102 287l-166 164l84 84l166 -166q127 102 287 102q157 0 284 -100l164 164l84 -84l-161 -164q102 -130 102 -287t-105 -284l164 -162zM262 700v-2
q0 -131 98 -226t230 -95q131 0 228 95t97 228q0 136 -96 231t-229 95q-132 0 -230 -95.5t-98 -230.5z" />
    <glyph glyph-name="yen" unicode="&#xa5;" horiz-adv-x="1179" 
d="M1102 915v-129h-395l-35 -69v-133h430v-129h-432v-455h-166v455h-426v129h426v131l-37 71h-389v129h321l-354 601h178l365 -642l370 642h179l-359 -601h324z" />
    <glyph glyph-name="brokenbar" unicode="&#xa6;" 
d="M485 1382h166v-716h-166v716zM485 358h166v-716h-166v716z" />
    <glyph glyph-name="section" unicode="&#xa7;" horiz-adv-x="1239" 
d="M1049 1174h-150q-8 68 -33.5 115t-64.5 70.5t-79.5 32.5t-92.5 9q-108 0 -180.5 -59t-73.5 -162q1 -46 16.5 -82.5t46.5 -62t54 -39.5t61 -31l330 -152q33 -16 53 -27t61.5 -41.5t66.5 -62t45.5 -83t20.5 -110.5q0 -100 -51.5 -181t-136.5 -138q129 -108 129 -270
q0 -164 -120.5 -276.5t-319.5 -112.5q-96 0 -180 27t-153.5 81t-109 146t-38.5 212h149q0 -163 86 -243t242 -80q136 0 215 67.5t82 176.5q-3 75 -50.5 128t-152.5 101l-383 176q-86 42 -128 81q-101 96 -101 253q0 49 15.5 99.5t63 111.5t123.5 106q-84 102 -84 224
q0 87 33.5 157.5t90.5 115t130 68t154 23.5q187 0 299 -101.5t115 -266.5zM991 467v2q0 37 -12 69t-28.5 52.5t-45.5 41.5t-48.5 31.5t-53.5 26.5l-397 187q-74 -36 -114 -95.5t-42 -130.5q3 -141 141 -207l447 -204q57 25 105 88.5t48 138.5z" />
    <glyph glyph-name="dieresis" unicode="&#xa8;" 
d="M449 1532v-262h-148v262h148zM834 1532v-262h-148v262h148z" />
    <glyph glyph-name="copyright" unicode="&#xa9;" horiz-adv-x="1638" 
d="M821 1540h2q216 0 395.5 -105.5t281.5 -285t102 -391.5q0 -162 -62 -307.5t-167 -249.5t-250 -165t-304 -61q-161 0 -305.5 60.5t-249 164.5t-166 249.5t-61.5 308.5q0 211 101 390t281.5 285.5t401.5 106.5zM821 1452h-2q-146 0 -274.5 -55.5t-219 -149.5t-142.5 -221.5
t-52 -267.5q0 -143 54 -272t145.5 -221.5t219 -147t269.5 -54.5q188 0 345.5 91.5t249 251.5t91.5 352q0 140 -52 268t-142 221.5t-218 149t-272 55.5zM1225 913h-109q-17 78 -65.5 128.5t-103 68.5t-116.5 18q-148 0 -238.5 -102.5t-90.5 -265.5q0 -92 27.5 -164.5t74 -116
t104 -66t121.5 -22.5q15 0 31.5 1.5t44.5 8t53.5 17.5t54.5 32.5t51.5 50t40.5 73t25 98.5h111q-13 -175 -131 -277t-285 -102q-87 0 -164.5 30.5t-138 87.5t-96 147t-35.5 200q0 204 120 336.5t320 132.5q161 0 270.5 -91t123.5 -223z" />
    <glyph glyph-name="ordfeminine" unicode="&#xaa;" horiz-adv-x="862" 
d="M762 1526v-652h-105v134q-38 -75 -106.5 -112.5t-153.5 -37.5q-150 0 -247 101t-97 241q0 147 100.5 244.5t243.5 97.5q177 0 260 -153v137h105zM160 1196v-2q0 -39 16.5 -80t46.5 -77t79 -58.5t108 -22.5q76 0 134 37t89 97q24 52 24 110q0 56 -20 103q-30 63 -91.5 102
t-137.5 39q-102 0 -175 -69.5t-73 -178.5z" />
    <glyph glyph-name="guillemotleft" unicode="&#xab;" horiz-adv-x="768" 
d="M80 571l221 390h127l-221 -390l221 -385h-127zM354 571l224 390h127l-224 -390l224 -385h-127z" />
    <glyph glyph-name="logicalnot" unicode="&#xac;" horiz-adv-x="1228" 
d="M100 797h1028v-533h-145v385h-883v148z" />
    <glyph glyph-name="uni00AD" unicode="&#xad;" horiz-adv-x="555" 
d="M0 649h555v-149h-555v149z" />
    <glyph glyph-name="registered" unicode="&#xae;" horiz-adv-x="1638" 
d="M821 1540h2q216 0 395.5 -105.5t281.5 -285t102 -391.5q0 -162 -62 -307.5t-167 -249.5t-250 -165t-304 -61q-161 0 -305.5 60.5t-249 164.5t-166 249.5t-61.5 308.5q0 211 101 390t281.5 285.5t401.5 106.5zM821 1452h-2q-145 0 -273.5 -55.5t-219 -149t-143 -221.5
t-52.5 -268q0 -191 91 -350.5t249.5 -252t347.5 -92.5q188 0 345.5 91.5t249 251.5t91.5 352q0 140 -52 267.5t-141.5 221.5t-217.5 149.5t-273 55.5zM483 1204h375q35 0 69 -3.5t81.5 -18.5t81.5 -39.5t59 -71.5t25 -110q0 -157 -164 -220q76 -23 108 -71t37 -133
q9 -135 13.5 -168t17.5 -60h-111q-10 17 -14.5 59t-11.5 148q-2 37 -6 58t-17.5 47.5t-37 40.5t-67 24t-106.5 10h-221v-387h-111v895zM840 1120h-246v-342h225q3 0 26.5 2t37 3.5t39 7t42 12.5t37.5 20.5t33 30.5t20.5 43t8.5 57q0 166 -223 166z" />
    <glyph glyph-name="macron" unicode="&#xaf;" 
d="M934 1456v-127h-731v127h731z" />
    <glyph glyph-name="degree" unicode="&#xb0;" horiz-adv-x="819" 
d="M702 1161v-2q0 -122 -84.5 -206.5t-207.5 -84.5t-208 85t-85 208t85 208t208 85t207.5 -85t84.5 -208zM213 1161v-2q0 -82 57 -139t140 -57t139.5 57.5t56.5 140.5q0 82 -56.5 140.5t-139.5 58.5t-140 -58.5t-57 -140.5z" />
    <glyph glyph-name="plusminus" unicode="&#xb1;" horiz-adv-x="1228" 
d="M541 709v362h147v-362h442v-148h-442v-358h-147v358h-443v148h443zM98 -55v147h1032v-147h-1032z" />
    <glyph glyph-name="twosuperior" unicode="&#xb2;" horiz-adv-x="757" 
d="M676 713v-107h-602v99q57 57 171.5 168.5t172.5 168.5q64 65 91.5 112.5t27.5 96.5q0 73 -39.5 123.5t-124.5 50.5q-81 0 -126.5 -60t-45.5 -155h-121q0 129 59 207q82 115 240 115q136 0 213.5 -71.5t77.5 -198.5q0 -73 -31.5 -133t-99.5 -128q-56 -55 -159.5 -159.5
t-127.5 -128.5h424z" />
    <glyph glyph-name="threesuperior" unicode="&#xb3;" horiz-adv-x="757" 
d="M59 883h127q3 -92 58 -139.5t129 -47.5q86 0 135 51.5t49 131.5q0 67 -50 123.5t-147 56.5h-73v94h53q44 0 78 14.5t51.5 37t26 45t8.5 42.5q0 54 -33.5 93t-93.5 40q-64 1 -99 -37t-38 -98h-125q2 67 29.5 116.5t69 75.5t83 38t82.5 12q105 0 176.5 -65.5t71.5 -161.5
q0 -63 -34 -112t-83 -77q78 -30 126 -95.5t48 -146.5q0 -123 -89.5 -203.5t-223.5 -80.5q-77 0 -147 30.5t-111 88.5q-51 74 -54 174z" />
    <glyph glyph-name="acute" unicode="&#xb4;" 
d="M322 1327l487 277l55 -111l-493 -264z" />
    <glyph glyph-name="mu" unicode="&#xb5;" horiz-adv-x="1198" 
d="M141 -377v1479h152v-596q0 -62 3 -103t19 -95t45 -91q84 -106 236 -106q150 0 233 118q84 119 84 342v531h150v-1102h-145v209q-92 -234 -322 -234q-203 0 -303 160v-158v-354h-152z" />
    <glyph glyph-name="paragraph" unicode="&#xb6;" horiz-adv-x="1243" 
d="M467 -242v953q-201 0 -328 101t-127 296q0 92 30 164.5t78.5 117.5t114.5 74t132 40.5t137 11.5h581v-119h-120v-1639h-127v1637h-244v-1637h-127z" />
    <glyph glyph-name="periodcentered" unicode="&#xb7;" horiz-adv-x="591" 
d="M377 635v-227h-160v227h160z" />
    <glyph glyph-name="cedilla" unicode="&#xb8;" 
d="M608 0l-53 -115q12 6 33 6q67 0 111 -44.5t44 -112.5q0 -70 -46 -123t-130 -53q-18 0 -38 4t-51 17t-54.5 46t-30.5 82h88q19 -67 86 -67q37 0 62 25t26 69q-1 37 -26 60.5t-60 23.5q-48 0 -73 -45l-76 30l92 197h96z" />
    <glyph glyph-name="onesuperior" unicode="&#xb9;" horiz-adv-x="757" 
d="M453 1516v-910h-121v803h-185v107h306z" />
    <glyph glyph-name="ordmasculine" unicode="&#xba;" horiz-adv-x="862" 
d="M86 1196v2q0 142 95.5 243t246.5 101q155 0 251.5 -102t96.5 -240q0 -145 -101 -243.5t-247 -98.5t-244 100.5t-98 237.5zM190 1196v-2q0 -96 70 -167t168 -71q97 0 170 70t74 174q-2 101 -70.5 172.5t-169.5 71.5q-99 0 -170.5 -69.5t-71.5 -178.5z" />
    <glyph glyph-name="guillemotright" unicode="&#xbb;" horiz-adv-x="768" 
d="M465 958l223 -389l-223 -385h-127l223 385l-223 389h127zM190 958l222 -389l-222 -385h-127l222 385l-222 389h127z" />
    <glyph glyph-name="onequarter" unicode="&#xbc;" horiz-adv-x="1568" 
d="M1118 1516l-663 -1516h-131l661 1516h133zM1264 754l-320 -488h320v488zM397 1516v-910h-121v803h-184v107h305zM1384 909v-643h93v-98h-93v-168h-122v168h-453v88l451 653h124z" />
    <glyph glyph-name="onehalf" unicode="&#xbd;" horiz-adv-x="1650" 
d="M397 1516v-910h-121v803h-184v107h305zM1118 1516l-663 -1516h-131l661 1516h133zM1561 106v-106h-605v98q177 170 347 338q63 65 90.5 112t27.5 97q0 74 -39.5 124t-126.5 50q-80 0 -125 -60t-45 -155h-122q3 119 51 197q82 125 250 125q135 0 212.5 -72t77.5 -199
q0 -73 -31.5 -132.5t-99.5 -127.5q-54 -53 -152 -153t-134 -136h424z" />
    <glyph glyph-name="threequarters" unicode="&#xbe;" horiz-adv-x="1783" 
d="M1485 756l-322 -490h322v490zM1343 1516l-663 -1516h-131l659 1516h135zM1606 909v-643h92v-98h-92v-168h-123v168h-453v88l451 653h125zM82 883h127q3 -92 58 -139.5t128 -47.5q86 0 135.5 51.5t49.5 131.5q0 67 -50 123.5t-147 56.5h-74v94h53q44 0 78 14.5t51.5 37
t26 45t8.5 42.5q0 54 -33.5 93t-93.5 40q-64 1 -99 -37t-38 -98h-125q2 67 29.5 116.5t69 75.5t83 38t82.5 12q105 0 176.5 -65.5t71.5 -161.5q0 -63 -34 -112t-83 -77q78 -30 126.5 -95.5t48.5 -146.5q0 -122 -90 -203t-224 -81q-78 0 -149 32.5t-111 92.5q-48 67 -51 168z
" />
    <glyph glyph-name="questiondown" unicode="&#xbf;" 
d="M518 877v225h158v-225h-158zM516 715h160q-3 -117 -42 -209.5t-153 -200.5q-97 -97 -124 -132q-61 -80 -64 -169q0 -121 81 -203t208 -82q107 0 192.5 65.5t104.5 186.5q4 36 4 58h166q0 -9 -1 -26.5t-1 -25.5q-10 -103 -56.5 -185.5t-114 -131.5t-145 -74.5
t-156.5 -25.5q-192 0 -322 126t-130 306q0 61 19 116.5t59.5 108t72.5 85.5t88 85q52 51 85 98t46.5 91t17.5 71t5 68z" />
    <glyph glyph-name="Agrave" unicode="&#xc0;" horiz-adv-x="1456" 
d="M373 426l-174 -426h-183l633 1516h164l627 -1516h-185l-176 426h-706zM1028 565l-303 760l-301 -760h604zM479 1956l490 -275l-49 -98l-494 262z" />
    <glyph glyph-name="Aacute" unicode="&#xc1;" horiz-adv-x="1456" 
d="M373 426l-174 -426h-183l633 1516h164l627 -1516h-185l-176 426h-706zM1028 565l-303 760l-301 -760h604zM487 1686l488 276l55 -111l-491 -264z" />
    <glyph glyph-name="Acircumflex" unicode="&#xc2;" horiz-adv-x="1456" 
d="M373 426l-174 -426h-183l633 1516h164l627 -1516h-185l-176 426h-706zM1028 565l-303 760l-301 -760h604zM784 1898l359 -272h-170l-246 168l-244 -168h-170l361 272h110z" />
    <glyph glyph-name="Atilde" unicode="&#xc3;" horiz-adv-x="1456" 
d="M373 426l-174 -426h-183l633 1516h164l627 -1516h-185l-176 426h-706zM1028 565l-303 760l-301 -760h604zM1051 1851l65 -102q-89 -80 -207 -80q-69 0 -186 37q-105 33 -162 33q-90 0 -155 -62l-66 105q38 37 93.5 58.5t111.5 21.5q77 0 186 -37q101 -33 164 -33
q97 0 156 59z" />
    <glyph glyph-name="Adieresis" unicode="&#xc4;" horiz-adv-x="1456" 
d="M373 426l-174 -426h-183l633 1516h164l627 -1516h-185l-176 426h-706zM1028 565l-303 760l-301 -760h604zM608 1890v-262h-147v262h147zM993 1890v-262h-147v262h147z" />
    <glyph glyph-name="Aring" unicode="&#xc5;" horiz-adv-x="1456" 
d="M373 426l-174 -426h-183l633 1516h164l627 -1516h-185l-176 426h-706zM1028 565l-303 760l-301 -760h604zM727 1980h2q86 0 147.5 -61.5t61.5 -149.5q0 -86 -61.5 -147t-149.5 -61t-149.5 61t-61.5 147q0 87 62 149t149 62zM727 1890h-2q-47 0 -81 -35t-34 -83
q0 -47 35 -81t82 -34q49 0 83 33.5t34 81.5q0 50 -34 84t-83 34z" />
    <glyph glyph-name="AE" unicode="&#xc6;" horiz-adv-x="1953" 
d="M-18 0l1050 1516h787v-150h-588v-526h584v-150h-584v-540h588v-150h-752v446h-578l-305 -446h-202zM571 582h496v727z" />
    <glyph glyph-name="Ccedilla" unicode="&#xc7;" horiz-adv-x="1640" 
d="M877 -27l-43 -88q15 6 34 6q66 0 112 -45t46 -112q0 -70 -46 -123t-130 -53q-14 0 -28.5 1.5t-40 10.5t-45 23.5t-38 44t-24.5 69.5h88q19 -67 88 -67q36 0 61 25t25 69q0 37 -25 60.5t-61 23.5q-46 0 -74 -45l-74 30l82 177q-199 19 -359.5 125.5t-251.5 278t-91 374.5
q0 160 59.5 304.5t163 250t251 167.5t314.5 62q108 0 208 -27.5t175 -72t139.5 -103.5t106.5 -118.5t70 -120.5h-183q-18 31 -45 65.5t-74.5 76.5t-102.5 74.5t-133 54.5t-161 22q-174 0 -316.5 -84.5t-223 -229.5t-80.5 -319q0 -177 81 -323t223.5 -230t315.5 -84
q90 0 172 25t136 58t102 78t68.5 71.5t37.5 52.5h183q-78 -182 -264.5 -307t-427.5 -128z" />
    <glyph glyph-name="Egrave" unicode="&#xc8;" horiz-adv-x="1107" 
d="M152 0v1516h839v-150h-672v-526h668v-150h-668v-540h672v-150h-839zM311 1976l490 -274l-49 -98l-494 262z" />
    <glyph glyph-name="Eacute" unicode="&#xc9;" horiz-adv-x="1107" 
d="M152 0v1516h839v-150h-672v-526h668v-150h-668v-540h672v-150h-839zM307 1706l488 276l55 -110l-494 -264z" />
    <glyph glyph-name="Ecircumflex" unicode="&#xca;" horiz-adv-x="1107" 
d="M152 0v1516h839v-150h-672v-526h668v-150h-668v-540h672v-150h-839zM610 1919l359 -272h-170l-246 168l-244 -168h-170l361 272h110z" />
    <glyph glyph-name="Edieresis" unicode="&#xcb;" horiz-adv-x="1107" 
d="M152 0v1516h839v-150h-672v-526h668v-150h-668v-540h672v-150h-839zM434 1911v-262h-147v262h147zM819 1911v-262h-147v262h147z" />
    <glyph glyph-name="Igrave" unicode="&#xcc;" horiz-adv-x="473" 
d="M152 0v1516h167v-1516h-167zM-49 1970l487 -276l-49 -97l-493 263z" />
    <glyph glyph-name="Iacute" unicode="&#xcd;" horiz-adv-x="473" 
d="M152 0v1516h167v-1516h-167zM35 1700l487 276l53 -112l-491 -262z" />
    <glyph glyph-name="Icircumflex" unicode="&#xce;" horiz-adv-x="473" 
d="M152 0v1516h167v-1516h-167zM293 1905l358 -273h-170l-245 168l-244 -168h-170l360 273h111z" />
    <glyph glyph-name="Idieresis" unicode="&#xcf;" horiz-adv-x="473" 
d="M152 0v1516h167v-1516h-167zM117 1903v-261h-148v261h148zM502 1903v-261h-148v261h148z" />
    <glyph glyph-name="Eth" unicode="&#xd0;" horiz-adv-x="1464" 
d="M152 842v674h454q399 0 594 -228q182 -200 182 -528q0 -348 -198.5 -554t-556.5 -206h-475v692h-152v150h152zM319 1366v-524h418v-150h-418v-542h302q286 0 438.5 162t152.5 442q0 279 -147 442q-160 170 -444 170h-302z" />
    <glyph glyph-name="Ntilde" unicode="&#xd1;" horiz-adv-x="1525" 
d="M324 1516l888 -1266l-2 1266h164v-1516h-164l-899 1276l4 -1276h-163v1516h172zM1085 1845l66 -102q-83 -80 -207 -80q-69 0 -186 37q-98 31 -162 31q-93 0 -156 -60l-63 105q38 36 92.5 56.5t112.5 20.5q82 0 186 -34q97 -33 162 -33q99 0 155 59z" />
    <glyph glyph-name="Ograve" unicode="&#xd2;" horiz-adv-x="1742" 
d="M80 752v2q0 171 63.5 319.5t171 250.5t252 160t303.5 58q164 0 310.5 -60.5t252 -164.5t167 -249.5t61.5 -309.5t-61.5 -309.5t-166.5 -250t-251.5 -165t-311.5 -60.5t-312 61.5t-251.5 166t-165.5 248t-61 303.5zM250 760v-2q0 -176 81 -321.5t224 -229.5t317 -84
q175 0 318.5 86.5t223 231.5t79.5 317q0 128 -47 245t-129 202.5t-198.5 136.5t-248.5 51q-174 0 -317 -85t-223 -230t-80 -318zM629 1976l489 -274l-49 -98l-494 262z" />
    <glyph glyph-name="Oacute" unicode="&#xd3;" horiz-adv-x="1742" 
d="M80 752v2q0 171 63.5 319.5t171 250.5t252 160t303.5 58q164 0 310.5 -60.5t252 -164.5t167 -249.5t61.5 -309.5t-61.5 -309.5t-166.5 -250t-251.5 -165t-311.5 -60.5t-312 61.5t-251.5 166t-165.5 248t-61 303.5zM250 760v-2q0 -176 81 -321.5t224 -229.5t317 -84
q175 0 318.5 86.5t223 231.5t79.5 317q0 128 -47 245t-129 202.5t-198.5 136.5t-248.5 51q-174 0 -317 -85t-223 -230t-80 -318zM625 1706l487 276l55 -110l-493 -264z" />
    <glyph glyph-name="Ocircumflex" unicode="&#xd4;" horiz-adv-x="1742" 
d="M80 752v2q0 171 63.5 319.5t171 250.5t252 160t303.5 58q164 0 310.5 -60.5t252 -164.5t167 -249.5t61.5 -309.5t-61.5 -309.5t-166.5 -250t-251.5 -165t-311.5 -60.5t-312 61.5t-251.5 166t-165.5 248t-61 303.5zM250 760v-2q0 -176 81 -321.5t224 -229.5t317 -84
q175 0 318.5 86.5t223 231.5t79.5 317q0 128 -47 245t-129 202.5t-198.5 136.5t-248.5 51q-174 0 -317 -85t-223 -230t-80 -318zM928 1913l358 -275h-170l-246 170l-243 -170h-170l360 275h111z" />
    <glyph glyph-name="Otilde" unicode="&#xd5;" horiz-adv-x="1742" 
d="M80 752v2q0 171 63.5 319.5t171 250.5t252 160t303.5 58q164 0 310.5 -60.5t252 -164.5t167 -249.5t61.5 -309.5t-61.5 -309.5t-166.5 -250t-251.5 -165t-311.5 -60.5t-312 61.5t-251.5 166t-165.5 248t-61 303.5zM250 760v-2q0 -176 81 -321.5t224 -229.5t317 -84
q175 0 318.5 86.5t223 231.5t79.5 317q0 128 -47 245t-129 202.5t-198.5 136.5t-248.5 51q-174 0 -317 -85t-223 -230t-80 -318zM1194 1845l66 -102q-86 -80 -207 -80q-70 0 -187 37q-98 31 -161 31q-93 0 -156 -60l-66 105q38 36 93.5 56.5t111.5 20.5q86 0 186 -34
q101 -33 164 -33q100 0 156 59z" />
    <glyph glyph-name="Odieresis" unicode="&#xd6;" horiz-adv-x="1742" 
d="M80 752v2q0 171 63.5 319.5t171 250.5t252 160t303.5 58q164 0 310.5 -60.5t252 -164.5t167 -249.5t61.5 -309.5t-61.5 -309.5t-166.5 -250t-251.5 -165t-311.5 -60.5t-312 61.5t-251.5 166t-165.5 248t-61 303.5zM250 760v-2q0 -176 81 -321.5t224 -229.5t317 -84
q175 0 318.5 86.5t223 231.5t79.5 317q0 128 -47 245t-129 202.5t-198.5 136.5t-248.5 51q-174 0 -317 -85t-223 -230t-80 -318zM752 1911v-262h-148v262h148zM1137 1911v-262h-148v262h148z" />
    <glyph glyph-name="multiply" unicode="&#xd7;" horiz-adv-x="1228" 
d="M211 0l-105 104l402 404l-402 399l105 107l403 -402l404 402l104 -107l-403 -399l401 -404l-102 -104l-404 403z" />
    <glyph glyph-name="Oslash" unicode="&#xd8;" horiz-adv-x="1742" 
d="M1284 1430l123 167h174l-184 -249q117 -99 190.5 -250.5t73.5 -339.5q0 -163 -61.5 -308.5t-166.5 -250t-251.5 -165.5t-311.5 -61q-226 0 -401 107l-121 -162h-174l180 242q-122 100 -198 253.5t-76 344.5q0 221 105.5 401.5t286 281.5t398.5 101q230 0 414 -112z
M455 295l733 1008q-133 90 -318 90q-176 0 -319 -86t-222 -230.5t-79 -316.5q0 -142 55 -264t150 -201zM1298 1217l-735 -1010q133 -84 309 -84t319.5 87t222.5 232t79 316q0 133 -51.5 251.5t-143.5 207.5z" />
    <glyph glyph-name="Ugrave" unicode="&#xd9;" horiz-adv-x="1302" 
d="M147 1516h170v-961q0 -74 2.5 -111t19 -91.5t50.5 -102.5q40 -58 111 -92.5t153 -34.5q81 0 151.5 34t108.5 91q34 47 50.5 101t19 92t2.5 114v961h168v-961q1 -74 -5 -132.5t-23 -121.5t-53 -117t-91 -96q-134 -115 -328 -115q-88 0 -178 28t-156 87q-46 37 -79 83
t-51 88.5t-27.5 97.5t-12 97t-2.5 101v961zM344 1956l490 -277l-50 -96l-493 262z" />
    <glyph glyph-name="Uacute" unicode="&#xda;" horiz-adv-x="1302" 
d="M147 1516h170v-961q0 -74 2.5 -111t19 -91.5t50.5 -102.5q40 -58 111 -92.5t153 -34.5q81 0 151.5 34t108.5 91q34 47 50.5 101t19 92t2.5 114v961h168v-961q1 -74 -5 -132.5t-23 -121.5t-53 -117t-91 -96q-134 -115 -328 -115q-88 0 -178 28t-156 87q-46 37 -79 83
t-51 88.5t-27.5 97.5t-12 97t-2.5 101v961zM428 1686l487 276l56 -111l-494 -264z" />
    <glyph glyph-name="Ucircumflex" unicode="&#xdb;" horiz-adv-x="1302" 
d="M147 1516h170v-961q0 -74 2.5 -111t19 -91.5t50.5 -102.5q40 -58 111 -92.5t153 -34.5q81 0 151.5 34t108.5 91q34 47 50.5 101t19 92t2.5 114v961h168v-961q1 -74 -5 -132.5t-23 -121.5t-53 -117t-91 -96q-134 -115 -328 -115q-88 0 -178 28t-156 87q-46 37 -79 83
t-51 88.5t-27.5 97.5t-12 97t-2.5 101v961zM709 1898l358 -272h-172l-244 168l-243 -168h-172l360 272h113z" />
    <glyph glyph-name="Udieresis" unicode="&#xdc;" horiz-adv-x="1302" 
d="M147 1516h170v-961q0 -74 2.5 -111t19 -91.5t50.5 -102.5q40 -58 111 -92.5t153 -34.5q81 0 151.5 34t108.5 91q34 47 50.5 101t19 92t2.5 114v961h168v-961q1 -74 -5 -132.5t-23 -121.5t-53 -117t-91 -96q-134 -115 -328 -115q-88 0 -178 28t-156 87q-46 37 -79 83
t-51 88.5t-27.5 97.5t-12 97t-2.5 101v961zM532 1890v-262h-147v262h147zM918 1890v-262h-148v262h148z" />
    <glyph glyph-name="Yacute" unicode="&#xdd;" horiz-adv-x="1198" 
d="M514 0v532l-487 984h184l389 -820l387 820h184l-487 -984v-532h-170zM418 1686l487 276l56 -111l-494 -264z" />
    <glyph glyph-name="Thorn" unicode="&#xde;" horiz-adv-x="1130" 
d="M137 0v1516h170v-279h230q166 0 250.5 -20.5t156.5 -75.5q75 -58 118.5 -156.5t43.5 -204.5q0 -107 -43.5 -206.5t-112.5 -153.5q-76 -59 -160 -81t-239 -22h-244v-317h-170zM307 1087v-620h242q102 0 163.5 13t116.5 50q49 35 81 102t32 144q0 80 -32 146.5t-83 101.5
q-56 36 -118 49.5t-164 13.5h-238z" />
    <glyph glyph-name="germandbls" unicode="&#xdf;" horiz-adv-x="1236" 
d="M143 0v938q0 179 20.5 271t76.5 163q63 84 159.5 129t198.5 45q191 0 308.5 -117t117.5 -294q0 -114 -54 -200t-145 -134q151 -25 240.5 -138t89.5 -255q0 -185 -134 -312t-337 -127q-147 2 -253.5 80.5t-135.5 235.5v-285h-152zM295 969v-566h98q4 -76 32 -134.5
t71.5 -91.5t92 -49t101.5 -17q137 0 226.5 82.5t89.5 207.5q0 142 -101 230q-48 37 -109 56t-178 20h-81v120h59q113 0 195.5 82t82.5 205q0 137 -79 214t-209 77q-75 0 -138 -34t-96 -89q-37 -61 -47 -128t-10 -185z" />
    <glyph glyph-name="agrave" unicode="&#xe0;" horiz-adv-x="1400" 
d="M1253 1102v-1102h-151v227q-64 -123 -183 -190.5t-268 -67.5q-105 0 -196.5 31.5t-159.5 86.5t-117 128t-73.5 159t-24.5 177q0 161 72 293.5t203.5 210.5t295.5 78q165 0 286 -79t165 -184v232h151zM229 551v-2q1 -78 28.5 -153t79.5 -140t139 -105t196 -40
q142 0 246.5 73.5t150.5 194.5q37 78 37 174q3 95 -35 176q-47 118 -154 191t-249 73q-189 0 -314 -128t-125 -314zM449 1597l489 -276l-49 -96l-494 262z" />
    <glyph glyph-name="aacute" unicode="&#xe1;" horiz-adv-x="1400" 
d="M1253 1102v-1102h-151v227q-64 -123 -183 -190.5t-268 -67.5q-105 0 -196.5 31.5t-159.5 86.5t-117 128t-73.5 159t-24.5 177q0 161 72 293.5t203.5 210.5t295.5 78q165 0 286 -79t165 -184v232h151zM229 551v-2q1 -78 28.5 -153t79.5 -140t139 -105t196 -40
q142 0 246.5 73.5t150.5 194.5q37 78 37 174q3 95 -35 176q-47 118 -154 191t-249 73q-189 0 -314 -128t-125 -314zM449 1327l487 277l55 -111l-493 -264z" />
    <glyph glyph-name="acircumflex" unicode="&#xe2;" horiz-adv-x="1400" 
d="M1253 1102v-1102h-151v227q-64 -123 -183 -190.5t-268 -67.5q-105 0 -196.5 31.5t-159.5 86.5t-117 128t-73.5 159t-24.5 177q0 161 72 293.5t203.5 210.5t295.5 78q165 0 286 -79t165 -184v232h151zM229 551v-2q1 -78 28.5 -153t79.5 -140t139 -105t196 -40
q142 0 246.5 73.5t150.5 194.5q37 78 37 174q3 95 -35 176q-47 118 -154 191t-249 73q-189 0 -314 -128t-125 -314zM748 1540l358 -272h-170l-246 168l-244 -168h-170l361 272h111z" />
    <glyph glyph-name="atilde" unicode="&#xe3;" horiz-adv-x="1400" 
d="M1253 1102v-1102h-151v227q-64 -123 -183 -190.5t-268 -67.5q-105 0 -196.5 31.5t-159.5 86.5t-117 128t-73.5 159t-24.5 177q0 161 72 293.5t203.5 210.5t295.5 78q165 0 286 -79t165 -184v232h151zM229 551v-2q1 -78 28.5 -153t79.5 -140t139 -105t196 -40
q142 0 246.5 73.5t150.5 194.5q37 78 37 174q3 95 -35 176q-47 118 -154 191t-249 73q-189 0 -314 -128t-125 -314zM1018 1473l63 -103q-86 -80 -207 -80q-69 0 -186 37q-104 33 -162 33q-88 0 -153 -62l-66 105q38 36 93.5 57t111.5 21q83 0 186 -35q97 -33 164 -33
q96 0 156 60z" />
    <glyph glyph-name="adieresis" unicode="&#xe4;" horiz-adv-x="1400" 
d="M1253 1102v-1102h-151v227q-64 -123 -183 -190.5t-268 -67.5q-105 0 -196.5 31.5t-159.5 86.5t-117 128t-73.5 159t-24.5 177q0 161 72 293.5t203.5 210.5t295.5 78q165 0 286 -79t165 -184v232h151zM229 551v-2q1 -78 28.5 -153t79.5 -140t139 -105t196 -40
q142 0 246.5 73.5t150.5 194.5q37 78 37 174q3 95 -35 176q-47 118 -154 191t-249 73q-189 0 -314 -128t-125 -314zM559 1532v-262h-147v262h147zM944 1532v-262h-147v262h147z" />
    <glyph glyph-name="aring" unicode="&#xe5;" horiz-adv-x="1400" 
d="M1253 1102v-1102h-151v227q-64 -123 -183 -190.5t-268 -67.5q-105 0 -196.5 31.5t-159.5 86.5t-117 128t-73.5 159t-24.5 177q0 161 72 293.5t203.5 210.5t295.5 78q165 0 286 -79t165 -184v232h151zM229 551v-2q1 -78 28.5 -153t79.5 -140t139 -105t196 -40
q142 0 246.5 73.5t150.5 194.5q37 78 37 174q3 95 -35 176q-47 118 -154 191t-249 73q-189 0 -314 -128t-125 -314zM674 1622h2q86 0 147.5 -61.5t61.5 -149.5q0 -86 -61.5 -147.5t-149.5 -61.5t-149.5 61.5t-61.5 147.5q0 87 62 149t149 62zM674 1532h-2q-47 0 -81 -35.5
t-34 -83.5t34 -81.5t83 -33.5t83 33.5t34 81.5q0 50 -34 84.5t-83 34.5z" />
    <glyph glyph-name="ae" unicode="&#xe6;" horiz-adv-x="2320" 
d="M2241 512h-994q9 -96 44.5 -171.5t81 -119.5t102.5 -72.5t105 -38.5t93 -10q228 0 377 228h158q-68 -155 -205 -257t-317 -102q-154 0 -270 76.5t-175 214.5v-260h-141v260q-43 -126 -168.5 -208.5t-278.5 -82.5q-115 0 -212.5 37t-162.5 97t-111 136.5t-66.5 155
t-20.5 154.5q0 164 74 297.5t205.5 210t293.5 76.5q158 0 271.5 -73.5t175.5 -205.5v248h141v-246q65 135 175 206t257 71q122 0 226.5 -45.5t181.5 -126.5q78 -83 122 -199.5t38 -249.5zM229 553v-2q0 -190 126.5 -315t316.5 -125q177 0 303.5 131t126.5 309
q0 181 -125 309q-127 133 -309 133q-128 0 -230.5 -63t-155.5 -163t-53 -214zM1251 623h838q-34 187 -146 282.5t-274 95.5q-188 0 -307 -135q-52 -58 -75 -114t-36 -129z" />
    <glyph glyph-name="ccedilla" unicode="&#xe7;" horiz-adv-x="1290" 
d="M672 -29l-41 -86q15 6 35 6q66 0 111.5 -45t45.5 -112q0 -70 -46 -123t-130 -53q-14 0 -28.5 1.5t-40 10.5t-45 23.5t-38 44t-24.5 69.5h88q19 -67 88 -67q36 0 61 25t25 69q0 37 -25 60.5t-61 23.5q-46 0 -74 -45l-73 30l80 174q-217 28 -359.5 187t-142.5 389
q1 161 76.5 294t208.5 209.5t296 76.5q125 0 238 -47t200 -142t124 -223h-156q-50 131 -162 200.5t-237 67.5q-95 0 -168.5 -29.5t-143.5 -93.5q-56 -53 -90.5 -138t-34.5 -177q0 -127 59 -228.5t158 -156.5t218 -55q149 1 255 77.5t144 184.5h158q-55 -176 -202 -286
t-347 -116z" />
    <glyph glyph-name="egrave" unicode="&#xe8;" horiz-adv-x="1286" 
d="M1219 508h-1004q3 -99 44 -179.5t104.5 -129.5t136.5 -74.5t145 -24.5q127 0 226 60t153 168h158q-75 -176 -224 -269q-140 -90 -313 -90q-111 0 -207 34t-163.5 91.5t-116 132t-72 157t-23.5 165.5q0 160 75.5 294t209 212t295.5 78q117 0 221.5 -40.5t182.5 -115.5
q95 -92 139.5 -214t32.5 -255zM217 629h852q-8 149 -133 264t-291 111q-175 0 -296 -110.5t-132 -264.5zM401 1597l490 -276l-49 -96l-494 262z" />
    <glyph glyph-name="eacute" unicode="&#xe9;" horiz-adv-x="1286" 
d="M1219 508h-1004q3 -99 44 -179.5t104.5 -129.5t136.5 -74.5t145 -24.5q127 0 226 60t153 168h158q-75 -176 -224 -269q-140 -90 -313 -90q-111 0 -207 34t-163.5 91.5t-116 132t-72 157t-23.5 165.5q0 160 75.5 294t209 212t295.5 78q117 0 221.5 -40.5t182.5 -115.5
q95 -92 139.5 -214t32.5 -255zM217 629h852q-8 149 -133 264t-291 111q-175 0 -296 -110.5t-132 -264.5zM389 1327l488 277l55 -111l-492 -264z" />
    <glyph glyph-name="ecircumflex" unicode="&#xea;" horiz-adv-x="1286" 
d="M1219 508h-1004q3 -99 44 -179.5t104.5 -129.5t136.5 -74.5t145 -24.5q127 0 226 60t153 168h158q-75 -176 -224 -269q-140 -90 -313 -90q-111 0 -207 34t-163.5 91.5t-116 132t-72 157t-23.5 165.5q0 160 75.5 294t209 212t295.5 78q117 0 221.5 -40.5t182.5 -115.5
q95 -92 139.5 -214t32.5 -255zM217 629h852q-8 149 -133 264t-291 111q-175 0 -296 -110.5t-132 -264.5zM700 1540l359 -272h-172l-244 168l-244 -168h-172l361 272h112z" />
    <glyph glyph-name="edieresis" unicode="&#xeb;" horiz-adv-x="1286" 
d="M1219 508h-1004q3 -99 44 -179.5t104.5 -129.5t136.5 -74.5t145 -24.5q127 0 226 60t153 168h158q-75 -176 -224 -269q-140 -90 -313 -90q-111 0 -207 34t-163.5 91.5t-116 132t-72 157t-23.5 165.5q0 160 75.5 294t209 212t295.5 78q117 0 221.5 -40.5t182.5 -115.5
q95 -92 139.5 -214t32.5 -255zM217 629h852q-8 149 -133 264t-291 111q-175 0 -296 -110.5t-132 -264.5zM518 1532v-262h-149v262h149zM903 1532v-262h-147v262h147z" />
    <glyph glyph-name="igrave" unicode="&#xec;" horiz-adv-x="446" 
d="M147 0v1102h152v-1102h-152zM-61 1597l489 -276l-49 -96l-494 262z" />
    <glyph glyph-name="iacute" unicode="&#xed;" horiz-adv-x="446" 
d="M147 0v1102h152v-1102h-152zM16 1327l488 277l55 -111l-493 -264z" />
    <glyph glyph-name="icircumflex" unicode="&#xee;" horiz-adv-x="446" 
d="M147 0v1102h152v-1102h-152zM281 1540l358 -272h-170l-246 168l-243 -168h-170l360 272h111z" />
    <glyph glyph-name="idieresis" unicode="&#xef;" horiz-adv-x="446" 
d="M147 0v1102h152v-1102h-152zM104 1532v-262h-147v262h147zM489 1532v-262h-147v262h147z" />
    <glyph glyph-name="eth" unicode="&#xf0;" horiz-adv-x="1329" 
d="M657 1280l-467 -147v112l342 111q-114 56 -294 119l161 51q160 -55 297 -129l416 129v-113l-295 -94q226 -135 338 -340q96 -176 96 -401q0 -137 -48 -252t-129 -191.5t-187 -119t-223 -44.5q-115 0 -219.5 39t-186 111t-129.5 183t-49 245q1 131 46 240t120.5 181.5
t176 113t214.5 42.5q98 0 193 -39.5t157 -109.5q-30 61 -86 117q-104 113 -244 186zM229 553v-2q0 -186 122.5 -313t314.5 -127t313 129.5t121 312.5q0 115 -56.5 216.5t-156 162.5t-217.5 61q-130 -1 -231.5 -61t-155.5 -159.5t-54 -219.5z" />
    <glyph glyph-name="ntilde" unicode="&#xf1;" horiz-adv-x="1306" 
d="M147 0v1102h144q0 -123 -2 -197q48 109 155.5 170t253.5 58q100 -1 179.5 -28.5t131.5 -74t87 -111t50 -137t15 -155.5v-627h-149v596q0 187 -88 292.5t-267 102.5q-170 -1 -264 -98.5t-94 -269.5v-623h-152zM977 1473l63 -103q-86 -80 -206 -80q-70 0 -187 37
q-105 33 -162 33q-88 0 -153 -62l-66 105q38 36 93.5 57t111.5 21q83 0 186 -35q97 -33 164 -33q96 0 156 60z" />
    <glyph glyph-name="ograve" unicode="&#xf2;" horiz-adv-x="1329" 
d="M80 551v2q0 154 71 285.5t206 213t307 81.5q130 0 241 -47.5t185.5 -127.5t116.5 -185.5t42 -221.5t-42 -221t-116.5 -185t-185.5 -127t-241 -47q-172 0 -307 81t-206 212.5t-71 286.5zM229 551v-2q0 -187 125.5 -312.5t309.5 -125.5q185 0 309.5 125.5t124.5 314.5
t-124.5 314.5t-309.5 125.5q-184 0 -309.5 -126t-125.5 -314zM424 1597l487 -276l-49 -96l-493 262z" />
    <glyph glyph-name="oacute" unicode="&#xf3;" horiz-adv-x="1329" 
d="M80 551v2q0 154 71 285.5t206 213t307 81.5q130 0 241 -47.5t185.5 -127.5t116.5 -185.5t42 -221.5t-42 -221t-116.5 -185t-185.5 -127t-241 -47q-172 0 -307 81t-206 212.5t-71 286.5zM229 551v-2q0 -187 125.5 -312.5t309.5 -125.5q185 0 309.5 125.5t124.5 314.5
t-124.5 314.5t-309.5 125.5q-184 0 -309.5 -126t-125.5 -314zM412 1327l487 277l55 -111l-493 -264z" />
    <glyph glyph-name="ocircumflex" unicode="&#xf4;" horiz-adv-x="1329" 
d="M80 551v2q0 154 71 285.5t206 213t307 81.5q130 0 241 -47.5t185.5 -127.5t116.5 -185.5t42 -221.5t-42 -221t-116.5 -185t-185.5 -127t-241 -47q-172 0 -307 81t-206 212.5t-71 286.5zM229 551v-2q0 -187 125.5 -312.5t309.5 -125.5q185 0 309.5 125.5t124.5 314.5
t-124.5 314.5t-309.5 125.5q-184 0 -309.5 -126t-125.5 -314zM723 1540l356 -272h-170l-243 168l-244 -168h-172l360 272h113z" />
    <glyph glyph-name="otilde" unicode="&#xf5;" horiz-adv-x="1329" 
d="M80 551v2q0 154 71 285.5t206 213t307 81.5q130 0 241 -47.5t185.5 -127.5t116.5 -185.5t42 -221.5t-42 -221t-116.5 -185t-185.5 -127t-241 -47q-172 0 -307 81t-206 212.5t-71 286.5zM229 551v-2q0 -187 125.5 -312.5t309.5 -125.5q185 0 309.5 125.5t124.5 314.5
t-124.5 314.5t-309.5 125.5q-184 0 -309.5 -126t-125.5 -314zM987 1473l66 -103q-86 -80 -207 -80q-70 0 -187 37q-104 33 -161 33q-91 0 -156 -62l-63 105q38 37 92.5 57.5t111.5 20.5q80 0 187 -35q97 -33 161 -33q96 0 156 60z" />
    <glyph glyph-name="odieresis" unicode="&#xf6;" horiz-adv-x="1329" 
d="M80 551v2q0 154 71 285.5t206 213t307 81.5q130 0 241 -47.5t185.5 -127.5t116.5 -185.5t42 -221.5t-42 -221t-116.5 -185t-185.5 -127t-241 -47q-172 0 -307 81t-206 212.5t-71 286.5zM229 551v-2q0 -187 125.5 -312.5t309.5 -125.5q185 0 309.5 125.5t124.5 314.5
t-124.5 314.5t-309.5 125.5q-184 0 -309.5 -126t-125.5 -314zM547 1532v-262h-148v262h148zM932 1532v-262h-148v262h148z" />
    <glyph glyph-name="divide" unicode="&#xf7;" horiz-adv-x="1228" 
d="M688 1067v-219h-147v219h147zM100 440v148h1028v-148h-1028zM688 180v-219h-147v219h147z" />
    <glyph glyph-name="oslash" unicode="&#xf8;" horiz-adv-x="1329" 
d="M1038 1174h158l-135 -191q90 -83 139 -193.5t49 -238.5q0 -116 -42 -222t-117 -185.5t-185 -127t-239 -47.5q-166 0 -293 76l-84 -115h-160l139 189q-88 75 -138 188t-50 244q0 155 71 287t206.5 213.5t308.5 81.5q170 0 290 -76zM365 240l505 694q-88 57 -204 57
q-186 0 -311.5 -125.5t-125.5 -314.5q0 -96 36.5 -176.5t99.5 -134.5zM965 860l-506 -694q90 -55 205 -55q124 0 224 58.5t155 159t55 222.5q0 195 -133 309z" />
    <glyph glyph-name="ugrave" unicode="&#xf9;" horiz-adv-x="1308" 
d="M1161 1102v-1102h-143v197q-46 -108 -153.5 -168.5t-254.5 -59.5q-125 2 -217 43.5t-145 113t-78 159t-25 192.5v625h150v-596q0 -186 87 -291t267 -104q171 1 266 98.5t95 269.5v623h151zM348 1597l488 -276l-50 -96l-493 262z" />
    <glyph glyph-name="uacute" unicode="&#xfa;" horiz-adv-x="1308" 
d="M1161 1102v-1102h-143v197q-46 -108 -153.5 -168.5t-254.5 -59.5q-125 2 -217 43.5t-145 113t-78 159t-25 192.5v625h150v-596q0 -186 87 -291t267 -104q171 1 266 98.5t95 269.5v623h151zM432 1327l488 277l55 -111l-494 -264z" />
    <glyph glyph-name="ucircumflex" unicode="&#xfb;" horiz-adv-x="1308" 
d="M1161 1102v-1102h-143v197q-46 -108 -153.5 -168.5t-254.5 -59.5q-125 2 -217 43.5t-145 113t-78 159t-25 192.5v625h150v-596q0 -186 87 -291t267 -104q171 1 266 98.5t95 269.5v623h151zM711 1540l358 -272h-170l-246 168l-243 -168h-170l360 272h111z" />
    <glyph glyph-name="udieresis" unicode="&#xfc;" horiz-adv-x="1308" 
d="M1161 1102v-1102h-143v197q-46 -108 -153.5 -168.5t-254.5 -59.5q-125 2 -217 43.5t-145 113t-78 159t-25 192.5v625h150v-596q0 -186 87 -291t267 -104q171 1 266 98.5t95 269.5v623h151zM535 1532v-262h-148v262h148zM920 1532v-262h-148v262h148z" />
    <glyph glyph-name="yacute" unicode="&#xfd;" horiz-adv-x="1048" 
d="M254 -418l188 438l-426 1082h162l346 -891l357 891h166l-629 -1520h-164zM342 1327l487 277l56 -111l-492 -264z" />
    <glyph glyph-name="thorn" unicode="&#xfe;" horiz-adv-x="1404" 
d="M147 -418v1934h150v-492v-152q38 72 95.5 125t121.5 81.5t124 41.5t118 13q128 0 236.5 -48.5t180.5 -130t112 -187t40 -220.5q0 -161 -73 -293.5t-203.5 -208.5t-290.5 -76t-279 73t-182 183v-139v-504h-150zM1174 551v2q0 183 -123.5 310.5t-315.5 127.5
q-184 0 -311 -127q-131 -125 -131 -317q0 -82 32 -160.5t91 -140.5q60 -63 142.5 -99t176.5 -36q190 0 314.5 127t124.5 313z" />
    <glyph glyph-name="ydieresis" unicode="&#xff;" horiz-adv-x="1048" 
d="M254 -418l188 438l-426 1082h162l346 -891l357 891h166l-629 -1520h-164zM406 1532v-262h-148v262h148zM791 1532v-262h-148v262h148z" />
    <glyph glyph-name="dotlessi" unicode="&#x131;" horiz-adv-x="446" 
d="M147 0v1102h152v-1102h-152z" />
    <glyph glyph-name="Lslash" unicode="&#x141;" horiz-adv-x="909" 
d="M4 492v174l156 114v736h170v-613l288 209v-174l-288 -215v-573h577v-150h-747v604z" />
    <glyph glyph-name="lslash" unicode="&#x142;" horiz-adv-x="532" 
d="M188 676l-149 -105v158l149 105v682h152v-586l176 125v-156l-176 -129v-770h-152v676z" />
    <glyph glyph-name="OE" unicode="&#x152;" horiz-adv-x="2349" 
d="M1645 1366v-526h581v-150h-581v-540h587v-150h-751v174v172q-83 -171 -251.5 -272t-367.5 -101q-163 0 -308 59.5t-249 163t-164.5 249t-60.5 311.5q0 164 58.5 309t161 250t248 166t312.5 61q223 0 390 -105t231 -268v174v173h751v-150h-587zM250 756v-2
q0 -171 76.5 -314.5t218 -230t317.5 -86.5q133 0 249 51.5t196 138t126 203.5t46 246q-3 175 -80.5 318.5t-218.5 228t-318 84.5q-176 0 -316.5 -84.5t-218 -229.5t-77.5 -323z" />
    <glyph glyph-name="oe" unicode="&#x153;" horiz-adv-x="2312" 
d="M2234 514h-991q5 -99 42 -179t96 -130.5t132 -77.5t152 -27q125 0 226.5 60t146.5 170h157q-16 -35 -28 -59t-35.5 -61t-56.5 -70.5t-74 -63.5q-153 -107 -334 -107q-97 0 -181 27t-145.5 74t-104.5 104.5t-69 124.5q-69 -161 -203 -245.5t-302 -84.5q-101 0 -188.5 27
t-149.5 73t-110 104.5t-76.5 124.5t-43 129t-14.5 122q0 161 73.5 294t208.5 211.5t304 78.5q171 0 305 -91t194 -239q16 39 41 79t69 85.5t97 80t129.5 57.5t161.5 23q120 0 225.5 -46t184.5 -128q84 -87 127 -203t34 -237zM229 551v-2q0 -185 125.5 -311.5t311.5 -126.5
q94 0 175.5 38t136.5 100t86.5 140.5t31.5 159.5q0 80 -31 159t-85.5 142.5t-137 103t-176.5 39.5q-183 0 -310 -125t-127 -317zM1247 625h832q-4 48 -23 98t-54.5 99t-82.5 87.5t-114 62t-142 23.5q-161 0 -277.5 -103.5t-138.5 -266.5z" />
    <glyph glyph-name="Scaron" unicode="&#x160;" horiz-adv-x="1097" 
d="M78 422h170q7 -72 32.5 -128t58 -88.5t73 -53.5t74 -28t65.5 -7q122 0 212.5 83t90.5 206q0 58 -21 105t-44.5 74.5t-79.5 56t-84.5 39t-101.5 33.5l-27 9q-39 12 -61 19t-68.5 26.5t-75.5 38t-67.5 51t-60.5 68.5t-38 87.5t-16 110.5q-2 129 63 226t167 144.5t220 47.5
q59 0 115 -13t110.5 -42.5t96.5 -73.5t71.5 -111.5t36.5 -150.5h-168q-6 35 -15 64t-29.5 65t-47.5 60.5t-72.5 41.5t-103.5 17q-117 0 -197 -72t-80 -188q0 -38 8.5 -69.5t23 -55.5t41 -46t52 -37.5t67.5 -32.5t77.5 -30t89.5 -31l18 -6q133 -51 193 -89q175 -115 176 -324
q0 -92 -34 -174t-94 -142t-148.5 -94.5t-192.5 -34.5q-129 0 -233.5 51t-170.5 154.5t-71 243.5zM135 1894h170l246 -170l242 170h172l-359 -270h-114z" />
    <glyph glyph-name="scaron" unicode="&#x161;" horiz-adv-x="921" 
d="M793 825h-150q0 86 -51.5 134.5t-136.5 48.5q-88 0 -141 -52.5t-50 -126.5q3 -73 55 -113.5t162 -72.5q38 -10 54 -14.5t51.5 -16t52.5 -20t46.5 -24.5t44.5 -31t35 -38.5t30.5 -48.5t18.5 -59t9 -72q6 -151 -99.5 -250.5t-264.5 -99.5q-69 0 -134.5 22t-120 63
t-88 108.5t-34.5 150.5h149q4 -107 71.5 -163t158.5 -56q94 0 154.5 60.5t58.5 146.5q-3 90 -65 139t-212 92q-66 20 -111.5 41t-87 53.5t-63 80t-22.5 110.5q0 144 99.5 230t244.5 86q61 0 117 -17.5t104.5 -52.5t79.5 -96.5t35 -141.5zM47 1528h170l246 -168l242 168h172
l-359 -271h-115z" />
    <glyph glyph-name="Ydieresis" unicode="&#x178;" horiz-adv-x="1198" 
d="M514 0v532l-487 984h184l389 -820l387 820h184l-487 -984v-532h-170zM481 1890v-262h-149v262h149zM866 1890v-262h-147v262h147z" />
    <glyph glyph-name="Zcaron" unicode="&#x17d;" horiz-adv-x="1021" 
d="M975 1386l-731 -1236h760v-150h-965v109l743 1257h-764v150h957v-130zM86 1886h170l246 -168l241 168h172l-358 -270h-115z" />
    <glyph glyph-name="zcaron" unicode="&#x17e;" horiz-adv-x="858" 
d="M27 0v111l610 870h-586v121h756v-123l-598 -858h620v-121h-802zM20 1526h170l246 -170l244 170h170l-358 -271h-115z" />
    <glyph glyph-name="florin" unicode="&#x192;" horiz-adv-x="1179" 
d="M754 1044h243v-120h-262l-166 -895q-13 -72 -22 -112.5t-31 -97t-53 -98.5q-109 -149 -332 -149q-73 0 -119 14l27 140q5 -1 23 -6t31.5 -7t31.5 -2q46 0 84.5 9.5t65 24t48 39.5t34 47t23.5 56t16 57t12 60l167 920h-245v120h266q23 142 56.5 237t103.5 163
q112 98 264 98q45 0 65 -6l-22 -125q-23 3 -51 0q-101 -9 -156 -70q-16 -17 -30 -42t-22.5 -44.5t-17.5 -55.5t-12.5 -51t-11 -56t-8.5 -48z" />
    <glyph glyph-name="circumflex" unicode="&#x2c6;" 
d="M625 1540l358 -272h-170l-246 168l-243 -168h-170l360 272h111z" />
    <glyph glyph-name="caron" unicode="&#x2c7;" 
d="M154 1528h170l245 -168l244 168h170l-358 -271h-115z" />
    <glyph glyph-name="uni02C9" unicode="&#x2c9;" 
d="M934 1456v-127h-731v127h731z" />
    <glyph glyph-name="breve" unicode="&#x2d8;" 
d="M166 1495h135q37 -45 98.5 -70.5t171.5 -25.5q105 0 170.5 27.5t92.5 68.5h137q-25 -93 -129.5 -155t-274.5 -62q-89 0 -166.5 20.5t-142.5 71t-92 125.5z" />
    <glyph glyph-name="dotaccent" unicode="&#x2d9;" 
d="M643 1532v-262h-149v262h149z" />
    <glyph glyph-name="ring" unicode="&#x2da;" 
d="M567 1622h2q86 0 147.5 -61.5t61.5 -149.5q0 -86 -61.5 -147.5t-149.5 -61.5t-149.5 61.5t-61.5 147.5q0 87 62 149t149 62zM567 1532h-2q-47 0 -80.5 -35.5t-33.5 -83.5q0 -47 34.5 -81t81.5 -34q49 0 83 33.5t34 81.5q0 50 -34 84.5t-83 34.5z" />
    <glyph glyph-name="ogonek" unicode="&#x2db;" 
d="M565 0h97q-42 -30 -53.5 -38.5t-39.5 -32t-36.5 -37.5t-17.5 -36t-9 -46q0 -56 39 -94t94 -38q34 0 109 27v-98q-68 -29 -136 -29q-104 0 -163.5 55.5t-59.5 143.5q0 41 14.5 75.5t43.5 62t53.5 45t64.5 40.5z" />
    <glyph glyph-name="tilde" unicode="&#x2dc;" 
d="M891 1473l65 -103q-89 -80 -206 -80q-70 0 -187 37q-105 33 -162 33q-90 0 -155 -62l-66 105q38 36 93.5 57t111.5 21q83 0 186 -35q101 -33 164 -33q96 0 156 60z" />
    <glyph glyph-name="hungarumlaut" unicode="&#x2dd;" 
d="M209 1311l362 295l86 -93l-370 -284zM565 1311l363 295l86 -93l-371 -284z" />
    <glyph glyph-name="uni03A9" unicode="&#x3a9;" horiz-adv-x="1527" 
d="M424 129v6q-126 113 -207.5 288.5t-81.5 389.5q0 158 49 293t133.5 229t201.5 147.5t251 53.5q138 0 256 -58.5t197 -157t123.5 -228t44.5 -271.5q0 -220 -85.5 -400.5t-207.5 -285.5v-6h321v-129h-506v94q136 92 229 275t93 424q0 87 -18.5 173t-57.5 165.5t-93 140
t-131 97t-167 36.5q-142 0 -252 -83t-167.5 -223t-57.5 -311q0 -230 95 -419t226 -275v-94h-506v129h318z" />
    <glyph glyph-name="uni03BC" unicode="&#x3bc;" horiz-adv-x="1198" 
d="M141 -377v1479h152v-596q0 -62 3 -103t19 -95t45 -91q84 -106 236 -106q150 0 233 118q84 119 84 342v531h150v-1102h-145v209q-92 -234 -322 -234q-203 0 -303 160v-158v-354h-152z" />
    <glyph glyph-name="pi" unicode="&#x3c0;" horiz-adv-x="1208" 
d="M1151 991h-172v-674q0 -207 31 -317h-150q-35 68 -35 303v688h-389q-10 -235 -55.5 -540.5t-101.5 -450.5h-150q58 168 102 463t52 528q-154 0 -238 -26l-25 102q92 57 304 57h843z" />
    <glyph glyph-name="endash" unicode="&#x2013;" horiz-adv-x="1024" 
d="M72 649h880v-149h-880v149z" />
    <glyph glyph-name="emdash" unicode="&#x2014;" horiz-adv-x="2048" 
d="M72 649h1904v-149h-1904v149z" />
    <glyph glyph-name="quoteleft" unicode="&#x2018;" horiz-adv-x="591" 
d="M324 1516l143 -381h-125l-160 381h142z" />
    <glyph glyph-name="quoteright" unicode="&#x2019;" horiz-adv-x="591" 
d="M125 1135l143 381h144l-160 -381h-127z" />
    <glyph glyph-name="quotesinglbase" unicode="&#x201a;" horiz-adv-x="591" 
d="M125 -168l143 381h144l-160 -381h-127z" />
    <glyph glyph-name="quotedblleft" unicode="&#x201c;" horiz-adv-x="882" 
d="M350 1516l146 -381h-127l-160 381h141zM598 1516l145 -381h-127l-159 381h141z" />
    <glyph glyph-name="quotedblright" unicode="&#x201d;" horiz-adv-x="882" 
d="M139 1135l146 381h141l-160 -381h-127zM387 1135l145 381h142l-160 -381h-127z" />
    <glyph glyph-name="quotedblbase" unicode="&#x201e;" horiz-adv-x="882" 
d="M139 -168l146 381h141l-160 -381h-127zM387 -168l145 381h142l-160 -381h-127z" />
    <glyph glyph-name="dagger" unicode="&#x2020;" horiz-adv-x="1239" 
d="M696 1516v-414h365v-135h-365v-1270h-153v1270h-363v135h363v414h153z" />
    <glyph glyph-name="daggerdbl" unicode="&#x2021;" horiz-adv-x="1239" 
d="M698 1516v-353h363v-137h-363v-782h363v-135h-363v-412h-153v412h-365v135h365v782h-365v137h365v353h153z" />
    <glyph glyph-name="bullet" unicode="&#x2022;" horiz-adv-x="1015" 
d="M510 989h2q91 0 155 -65.5t64 -157.5t-64.5 -156.5t-158.5 -64.5q-93 0 -158 65t-65 156q0 92 64.5 157.5t160.5 65.5z" />
    <glyph glyph-name="ellipsis" unicode="&#x2026;" horiz-adv-x="2048" 
d="M262 0v227h160v-227h-160zM944 0v227h160v-227h-160zM1626 0v227h160v-227h-160z" />
    <glyph glyph-name="perthousand" unicode="&#x2030;" horiz-adv-x="2344" 
d="M51 1198v2q0 146 99 245t247 99t247 -99t99 -247t-99 -247t-247 -99q-147 0 -246.5 99.5t-99.5 246.5zM166 1198v-2q0 -100 65 -166.5t166 -66.5q100 0 166 66.5t66 168.5t-65.5 169t-166.5 67t-166 -67t-65 -169zM817 317v2q0 147 99.5 246t246.5 99q148 0 247 -99.5
t99 -247.5q0 -147 -99.5 -246.5t-246.5 -99.5t-246.5 99.5t-99.5 246.5zM932 317v-2q0 -100 65 -166.5t166 -66.5t167.5 67t66.5 168q0 103 -66.5 170.5t-167.5 67.5t-166 -68t-65 -170zM1604 317v2q0 147 99 246t247 99q146 0 245 -99.5t99 -247.5t-99 -247t-245 -99
q-148 0 -247 99t-99 247zM1716 317v-2q0 -100 66 -166.5t168 -66.5q100 0 165.5 67t65.5 168q0 103 -65.5 170.5t-165.5 67.5q-102 0 -168 -68t-66 -170zM1255 1516l-833 -1516h-123l834 1516h122z" />
    <glyph glyph-name="guilsinglleft" unicode="&#x2039;" horiz-adv-x="489" 
d="M74 569l223 389h127l-223 -389l223 -385h-127z" />
    <glyph glyph-name="guilsinglright" unicode="&#x203a;" horiz-adv-x="489" 
d="M195 958l221 -389l-221 -385h-127l221 385l-221 389h127z" />
    <glyph glyph-name="fraction" unicode="&#x2044;" horiz-adv-x="260" 
d="M-268 0l661 1516h133l-661 -1516h-133z" />
    <glyph glyph-name="Euro" unicode="&#x20ac;" horiz-adv-x="1134" 
d="M1143 1350l-60 -148q-51 86 -143 144.5t-221 58.5q-76 0 -139 -27.5t-104.5 -72.5t-70 -104t-41 -120t-12.5 -123h637l-51 -129h-588v-143h531l-52 -129h-475q2 -71 21 -155.5t53 -135.5q102 -155 291 -155q94 0 190.5 40.5t134.5 106.5v-178q-34 -37 -116.5 -72
t-208.5 -35q-91 0 -172 25t-156.5 87.5t-122.5 156.5q-58 113 -65 315h-187l52 129h131v143h-183l52 129h133q0 89 18.5 172.5t59.5 159t100.5 131t147 88.5t192.5 33q142 0 256 -59t168 -133z" />
    <glyph glyph-name="afii61289" unicode="&#x2113;" horiz-adv-x="1028" 
d="M903 315l76 -63q-139 -268 -395 -268q-71 0 -129 21.5t-98 58.5t-67.5 88.5t-41 110t-15.5 124.5v29q-85 -71 -122 -101l-48 91q13 11 54 45.5t66.5 57.5t47.5 46v594q0 114 19 204.5t50 148t74 96t88 54t95 15.5q128 0 195 -97.5t67 -250.5q0 -195 -114 -390.5
t-326 -406.5v-71q1 -89 20 -157t52 -108t74 -60t89 -20q92 0 167 61.5t122 147.5zM379 1161v-483q157 175 244.5 330.5t87.5 306.5q0 233 -154 233q-71 0 -124.5 -94t-53.5 -293z" />
    <glyph glyph-name="trademark" unicode="&#x2122;" horiz-adv-x="2027" 
d="M739 606v910h158l346 -740l344 740h158v-910h-117v760l-346 -760h-80l-348 756v-756h-115zM258 606v805h-231v105h585v-105h-231v-805h-123z" />
    <glyph glyph-name="Omega" unicode="&#x2126;" horiz-adv-x="1527" 
d="M424 129v6q-126 113 -207.5 288.5t-81.5 389.5q0 158 49 293t133.5 229t201.5 147.5t251 53.5q138 0 256 -58.5t197 -157t123.5 -228t44.5 -271.5q0 -220 -85.5 -400.5t-207.5 -285.5v-6h321v-129h-506v94q136 92 229 275t93 424q0 87 -18.5 173t-57.5 165.5t-93 140
t-131 97t-167 36.5q-142 0 -252 -83t-167.5 -223t-57.5 -311q0 -230 95 -419t226 -275v-94h-506v129h318z" />
    <glyph glyph-name="estimated" unicode="&#x212e;" horiz-adv-x="1892" 
d="M1817 735h-1411q-13 0 -13 -8v-428q0 -22 19 -49q106 -109 243.5 -170.5t290.5 -61.5q165 0 310 69.5t251 191.5h125q-120 -140 -301 -222t-387 -82q-237 0 -437 105t-316.5 285t-116.5 393q0 159 69 304t185.5 249.5t277.5 166.5t338 62t338.5 -62t278.5 -166.5
t186.5 -249.5t69.5 -304v-23zM1495 791v430q0 31 -20 51q-106 105 -242 164t-287 59t-288.5 -61t-243.5 -168q-21 -24 -21 -54v-421q0 -4 4 -8.5t9 -4.5h1081q8 0 8 13z" />
    <glyph glyph-name="partialdiff" unicode="&#x2202;" horiz-adv-x="1157" 
d="M217 1462l-53 113q149 121 350 121q105 0 200 -50.5t171 -148t121 -257t45 -361.5q0 -259 -61 -458.5t-187.5 -318t-304.5 -118.5q-80 0 -147.5 27.5t-114.5 75t-80 111.5t-48.5 135.5t-15.5 147.5q0 123 37 228.5t99 175.5t144 109.5t171 39.5q69 0 132 -22.5t106.5 -57
t71.5 -66.5t42 -61h2q2 25 2 95q0 284 -116 463.5t-283 179.5q-159 0 -283 -103zM510 113h4q98 0 177.5 79.5t126 204t61.5 273.5q-13 38 -40 77.5t-65.5 76.5t-93 60t-113.5 23q-132 0 -226.5 -125.5t-94.5 -300.5q0 -162 72 -265t192 -103z" />
    <glyph glyph-name="Delta" unicode="&#x2206;" horiz-adv-x="1374" 
d="M68 0v106l534 1446h178l527 -1443v-109h-1239zM223 127h918l-312 840q-16 50 -71 198.5t-70 202.5h-8q-11 -45 -61.5 -183t-65.5 -186z" />
    <glyph glyph-name="product" unicode="&#x220f;" horiz-adv-x="1482" 
d="M1425 1370h-231v-1579h-152v1579h-602v-1579h-151v1579h-234v141h1370v-141z" />
    <glyph glyph-name="summation" unicode="&#x2211;" horiz-adv-x="1177" 
d="M1128 -209h-1079v105l576 753l-551 754v108h1020v-133h-807v-8l514 -698l-555 -727v-6h882v-148z" />
    <glyph glyph-name="minus" unicode="&#x2212;" horiz-adv-x="1228" 
d="M100 440v148h1028v-148h-1028z" />
    <glyph glyph-name="uni2215" unicode="&#x2215;" horiz-adv-x="260" 
d="M-268 0l661 1516h133l-661 -1516h-133z" />
    <glyph glyph-name="uni2219" unicode="&#x2219;" horiz-adv-x="591" 
d="M377 635v-227h-160v227h160z" />
    <glyph glyph-name="radical" unicode="&#x221a;" horiz-adv-x="1216" 
d="M1214 1796l-473 -2120h-137l-342 1008l-158 -61l-30 96l286 110l273 -809q23 -85 37 -155h4q14 93 26 155l398 1776h116z" />
    <glyph glyph-name="infinity" unicode="&#x221e;" horiz-adv-x="1658" 
d="M1550 629v-2q0 -150 -96 -244t-229 -94q-97 0 -184.5 59.5t-206.5 194.5q-54 -61 -89.5 -96t-89 -77t-109.5 -61.5t-118 -19.5q-132 0 -225.5 95.5t-93.5 233.5q0 146 94 242t239 96q58 0 113 -20t106 -59.5t90.5 -79t88.5 -97.5q6 6 18 20q42 47 65 71t65.5 61.5t76 56
t80.5 33t96 14.5q139 0 224 -90t85 -237zM442 387h2q28 0 55.5 6.5t56 23.5t48 29.5t49 41t42 41t43.5 46.5t38 41q-91 113 -137 154q-101 92 -211 92q-99 0 -157 -71.5t-58 -174.5q2 -97 65 -163t164 -66zM1229 862h-2q-41 0 -81 -15.5t-78.5 -46.5t-65 -56t-63 -65
t-48.5 -52q83 -91 129 -135.5t101 -74.5t112 -30q98 0 156.5 70.5t58.5 163.5q0 111 -61.5 176t-157.5 65z" />
    <glyph glyph-name="integral" unicode="&#x222b;" horiz-adv-x="761" 
d="M723 1817l-27 -109q-31 23 -75 23q-68 0 -109 -52q-40 -49 -57 -140t-17 -249q0 -167 14.5 -540t14.5 -551q0 -298 -92 -437q-32 -53 -88 -80.5t-121 -27.5q-38 0 -77 11t-60 24l28 112q54 -24 97 -24q61 0 98 49q74 95 74 375q0 179 -14.5 557.5t-14.5 546.5
q0 180 26 286t87 170q78 84 198 84q68 0 115 -28z" />
    <glyph glyph-name="approxequal" unicode="&#x2248;" horiz-adv-x="1200" 
d="M1036 926l64 -56q-102 -202 -275 -202q-41 0 -83 12.5t-72 27.5t-95 50q-41 24 -66 37t-61.5 24.5t-70.5 11.5q-68 0 -116.5 -41.5t-96.5 -117.5l-66 53q48 96 124.5 150.5t168.5 54.5q36 0 75 -11t58.5 -19.5t61 -32t45.5 -25.5q8 -4 34 -19t34.5 -19.5t29.5 -14.5
t33.5 -13t31.5 -6.5t37 -3.5q63 0 109.5 38.5t95.5 121.5zM1036 563l64 -55q-104 -203 -275 -203q-80 0 -230 80q-13 6 -20 10q-43 25 -67 37.5t-60.5 24.5t-70.5 12q-69 0 -116.5 -42t-96.5 -120l-66 55q48 96 124.5 150.5t166.5 54.5q30 0 58.5 -5t57 -17t44 -19.5
t45.5 -24.5t35 -20q3 -2 20.5 -12l21 -12t19 -10t20 -10t18.5 -8.5t20.5 -8t19 -5.5t21.5 -5.5t21 -2.5t24 -1q63 0 108 37.5t94 119.5z" />
    <glyph glyph-name="notequal" unicode="&#x2260;" horiz-adv-x="1200" 
d="M850 1083l-96 -211h336v-100h-377l-144 -315h521v-101h-562l-116 -252l-80 37l98 215h-321v101h364l143 315h-507v100h548l113 248z" />
    <glyph glyph-name="lessequal" unicode="&#x2264;" horiz-adv-x="1200" 
d="M1083 211l-962 483v107l962 483v-123l-852 -409v-4l852 -416v-121zM1090 18h-981v105h981v-105z" />
    <glyph glyph-name="greaterequal" unicode="&#x2265;" horiz-adv-x="1200" 
d="M123 1284l962 -483v-107l-962 -483v121l852 413v5l-852 411v123zM1090 18h-979v105h979v-105z" />
    <glyph glyph-name="lozenge" unicode="&#x25ca;" horiz-adv-x="1216" 
d="M1098 756l-430 -852h-125l-426 852l430 852h127zM956 752l-307 608q-29 77 -39 115h-6q-21 -70 -41 -115l-305 -602l309 -615q26 -62 37 -108h8q9 40 37 108z" />
    </font>
</defs>
</svg>
